<?xml version="1.0" standalone="no"?>
<!DOCTYPE svg PUBLIC "-//W3C//DTD SVG 20010904//EN"
 "http://www.w3.org/TR/2001/REC-SVG-20010904/DTD/svg10.dtd">
<svg version="1.0" xmlns="http://www.w3.org/2000/svg"
 width="920.000000pt" height="920.000000pt" viewBox="0 0 920.000000 920.000000"
 preserveAspectRatio="xMidYMid meet">

<g transform="translate(0.000000,920.000000) scale(0.100000,-0.100000)"
fill="#000000" stroke="none">
<path d="M293 9125 c-70 -49 0 -160 76 -120 48 24 55 72 16 110 -27 28 -61 32
-92 10z"/>
<path d="M769 9122 c-15 -13 -22 -30 -22 -51 0 -66 76 -98 123 -51 27 27 25
66 -5 95 -29 30 -64 32 -96 7z"/>
<path d="M1250 9120 c-26 -26 -26 -81 0 -105 29 -26 79 -24 102 4 25 32 23 67
-7 96 -29 30 -68 32 -95 5z"/>
<path d="M1730 9120 c-26 -26 -26 -81 0 -105 27 -25 80 -22 102 6 25 30 22 66
-7 94 -29 30 -68 32 -95 5z"/>
<path d="M2212 9117 c-46 -49 -16 -121 50 -119 65 2 92 82 42 121 -35 27 -65
27 -92 -2z"/>
<path d="M2696 9119 c-50 -39 -22 -122 42 -122 69 0 99 80 46 122 -15 12 -34
21 -44 21 -10 0 -29 -9 -44 -21z"/>
<path d="M3176 9119 c-50 -39 -22 -122 42 -122 66 0 98 78 50 123 -28 26 -58
26 -92 -1z"/>
<path d="M3655 9115 c-46 -45 -19 -118 43 -118 43 0 72 28 72 69 0 66 -69 96
-115 49z"/>
<path d="M4135 9115 c-53 -53 -12 -126 65 -115 49 6 68 82 30 120 -27 27 -66
25 -95 -5z"/>
<path d="M4615 9115 c-41 -40 -29 -95 24 -113 36 -13 71 3 89 41 11 22 10 31
-2 55 -25 49 -73 56 -111 17z"/>
<path d="M5095 9115 c-28 -27 -30 -42 -14 -78 24 -53 91 -54 124 -4 30 46 -7
107 -63 107 -12 0 -34 -11 -47 -25z"/>
<path d="M5575 9115 c-14 -13 -25 -31 -25 -39 0 -30 23 -65 49 -74 76 -27 134
77 68 123 -31 22 -65 18 -92 -10z"/>
<path d="M6067 9129 c-10 -6 -23 -22 -28 -37 -32 -83 93 -136 130 -55 16 36
14 51 -14 78 -25 26 -58 31 -88 14z"/>
<path d="M6552 9133 c-7 -3 -19 -18 -28 -34 -12 -25 -13 -34 -2 -56 35 -73
138 -53 138 27 0 45 -63 81 -108 63z"/>
<path d="M7020 9120 c-25 -25 -26 -81 -2 -103 30 -27 73 -26 102 3 27 27 25
66 -5 95 -29 30 -68 32 -95 5z"/>
<path d="M7502 9120 c-48 -45 -16 -123 50 -123 62 0 89 73 43 118 -29 30 -64
32 -93 5z"/>
<path d="M7982 9120 c-48 -45 -16 -123 50 -123 64 0 92 83 42 122 -34 27 -64
27 -92 1z"/>
<path d="M8466 9119 c-53 -42 -23 -122 46 -122 64 0 92 83 42 122 -15 12 -34
21 -44 21 -10 0 -29 -9 -44 -21z"/>
<path d="M8946 9119 c-50 -39 -22 -122 42 -122 69 0 99 80 46 122 -15 12 -34
21 -44 21 -10 0 -29 -9 -44 -21z"/>
<path d="M53 8885 c-67 -47 -8 -150 70 -122 49 17 61 74 22 112 -27 28 -61 32
-92 10z"/>
<path d="M533 8885 c-43 -30 -38 -88 12 -121 21 -14 30 -14 55 -4 55 23 66 75
25 115 -27 28 -61 32 -92 10z"/>
<path d="M1010 8880 c-47 -47 -15 -123 51 -123 63 0 90 72 44 118 -29 30 -68
32 -95 5z"/>
<path d="M1510 8893 c-43 -15 -55 -87 -20 -118 29 -26 79 -24 102 4 46 58 -12
139 -82 114z"/>
<path d="M1972 8880 c-48 -45 -16 -123 50 -123 64 0 92 83 42 122 -34 27 -64
27 -92 1z"/>
<path d="M2456 8879 c-52 -41 -23 -122 44 -122 67 0 96 81 44 122 -15 12 -34
21 -44 21 -10 0 -29 -9 -44 -21z"/>
<path d="M2936 8879 c-50 -39 -22 -122 42 -122 69 0 99 80 46 122 -15 12 -34
21 -44 21 -10 0 -29 -9 -44 -21z"/>
<path d="M3415 8875 c-46 -45 -19 -118 43 -118 43 0 72 28 72 69 0 66 -69 96
-115 49z"/>
<path d="M3895 8875 c-30 -29 -32 -64 -7 -96 39 -47 122 -17 122 45 0 37 -7
49 -37 65 -33 17 -51 14 -78 -14z"/>
<path d="M4375 8875 c-46 -46 -19 -118 44 -118 66 0 98 76 51 123 -27 27 -66
25 -95 -5z"/>
<path d="M4855 8875 c-40 -39 -29 -95 22 -113 78 -27 136 76 70 123 -31 22
-65 18 -92 -10z"/>
<path d="M5335 8875 c-41 -40 -30 -92 25 -115 25 -10 34 -10 55 4 50 33 55 91
12 121 -31 22 -65 18 -92 -10z"/>
<path d="M5827 8889 c-28 -16 -40 -58 -27 -90 24 -57 103 -58 129 -2 16 36 14
51 -14 78 -25 26 -58 31 -88 14z"/>
<path d="M6307 8889 c-28 -16 -40 -58 -27 -90 15 -36 57 -51 97 -34 49 21 58
71 18 110 -25 26 -58 31 -88 14z"/>
<path d="M6780 8880 c-47 -47 -15 -123 51 -123 63 0 90 72 44 118 -29 30 -68
32 -95 5z"/>
<path d="M7275 8888 c-28 -16 -35 -28 -35 -64 0 -62 83 -92 122 -45 25 32 23
67 -7 96 -26 27 -49 31 -80 13z"/>
<path d="M7742 8880 c-48 -45 -16 -123 50 -123 62 0 89 73 43 118 -29 30 -64
32 -93 5z"/>
<path d="M8226 8879 c-53 -42 -23 -122 46 -122 64 0 92 83 42 122 -15 12 -34
21 -44 21 -10 0 -29 -9 -44 -21z"/>
<path d="M8706 8879 c-53 -42 -23 -122 46 -122 64 0 92 83 42 122 -15 12 -34
21 -44 21 -10 0 -29 -9 -44 -21z"/>
<path d="M9177 8872 c-23 -25 -21 -65 3 -93 l19 -24 1 68 c0 37 -2 67 -3 67
-2 0 -11 -8 -20 -18z"/>
<path d="M302 8653 c-7 -3 -19 -18 -28 -35 -33 -63 31 -127 94 -94 83 43 22
164 -66 129z"/>
<path d="M787 8653 c-27 -7 -47 -60 -35 -94 12 -35 55 -54 91 -40 51 19 62 77
22 116 -23 24 -40 28 -78 18z"/>
<path d="M1252 8640 c-48 -45 -16 -123 50 -123 62 0 89 73 43 118 -29 30 -64
32 -93 5z"/>
<path d="M1736 8639 c-36 -29 -36 -80 1 -109 70 -55 151 42 88 105 -30 30 -54
31 -89 4z"/>
<path d="M2225 8648 c-28 -16 -35 -28 -35 -64 0 -62 83 -92 122 -45 25 32 23
67 -7 96 -26 27 -49 31 -80 13z"/>
<path d="M2696 8639 c-52 -41 -23 -122 44 -122 67 0 96 81 44 122 -15 12 -34
21 -44 21 -10 0 -29 -9 -44 -21z"/>
<path d="M3176 8639 c-46 -36 -26 -110 34 -124 39 -9 80 27 80 70 0 36 -36 75
-70 75 -10 0 -29 -9 -44 -21z"/>
<path d="M3655 8635 c-46 -45 -19 -118 43 -118 69 0 99 80 46 122 -35 27 -59
26 -89 -4z"/>
<path d="M4135 8635 c-29 -28 -32 -65 -7 -93 43 -52 122 -24 122 44 0 68 -68
97 -115 49z"/>
<path d="M4615 8635 c-14 -13 -25 -35 -25 -47 0 -56 61 -93 107 -63 50 33 49
100 -4 124 -36 16 -51 14 -78 -14z"/>
<path d="M5095 8635 c-39 -39 -32 -86 17 -111 59 -30 122 27 99 89 -19 51 -77
62 -116 22z"/>
<path d="M5575 8635 c-39 -39 -32 -86 17 -111 59 -30 122 27 99 89 -19 51 -77
62 -116 22z"/>
<path d="M6067 8649 c-28 -16 -40 -58 -27 -90 36 -87 164 -33 130 55 -15 41
-64 58 -103 35z"/>
<path d="M6554 8648 c-72 -34 -27 -152 50 -132 56 14 73 78 31 119 -26 27 -47
30 -81 13z"/>
<path d="M7035 8648 c-28 -16 -35 -28 -35 -65 0 -41 42 -77 80 -68 58 14 78
78 35 120 -26 27 -49 31 -80 13z"/>
<path d="M7506 8639 c-53 -42 -23 -122 46 -122 62 0 89 73 43 118 -30 30 -54
31 -89 4z"/>
<path d="M7986 8639 c-36 -29 -36 -80 1 -109 47 -37 113 -2 113 60 0 31 -39
70 -70 70 -10 0 -29 -9 -44 -21z"/>
<path d="M8466 8639 c-52 -41 -23 -122 44 -122 67 0 96 81 44 122 -15 12 -34
21 -44 21 -10 0 -29 -9 -44 -21z"/>
<path d="M8946 8639 c-52 -41 -23 -122 44 -122 67 0 96 81 44 122 -15 12 -34
21 -44 21 -10 0 -29 -9 -44 -21z"/>
<path d="M57 8409 c-48 -28 -40 -107 13 -129 58 -24 120 44 90 99 -20 38 -66
51 -103 30z"/>
<path d="M544 8408 c-78 -37 -23 -160 59 -129 51 19 62 77 22 116 -26 27 -47
30 -81 13z"/>
<path d="M1023 8408 c-12 -6 -26 -22 -31 -37 -27 -76 77 -134 123 -68 22 31
18 65 -10 92 -26 27 -47 30 -82 13z"/>
<path d="M1496 8399 c-36 -29 -36 -80 1 -109 70 -55 151 42 88 105 -30 30 -54
31 -89 4z"/>
<path d="M1976 8399 c-19 -15 -26 -30 -26 -54 0 -37 37 -75 72 -75 27 0 68 45
68 75 0 30 -41 75 -68 75 -11 0 -31 -9 -46 -21z"/>
<path d="M2456 8399 c-36 -29 -36 -80 1 -109 47 -37 113 -4 113 56 0 35 -37
74 -70 74 -10 0 -29 -9 -44 -21z"/>
<path d="M2936 8399 c-34 -27 -35 -71 -1 -104 30 -30 54 -31 89 -4 36 28 36
80 0 108 -15 12 -34 21 -44 21 -10 0 -29 -9 -44 -21z"/>
<path d="M3415 8395 c-63 -63 18 -160 88 -105 37 29 37 80 1 109 -35 27 -59
26 -89 -4z"/>
<path d="M3895 8395 c-43 -42 -23 -106 35 -120 38 -9 80 27 80 68 0 38 -7 50
-37 66 -33 17 -51 14 -78 -14z"/>
<path d="M4375 8395 c-43 -42 -23 -106 35 -120 38 -9 80 27 80 68 0 38 -7 50
-37 66 -33 17 -51 14 -78 -14z"/>
<path d="M4855 8395 c-58 -57 1 -146 76 -115 57 24 55 118 -3 134 -38 10 -48
7 -73 -19z"/>
<path d="M5335 8395 c-27 -26 -30 -41 -15 -80 21 -55 106 -53 130 4 31 75 -58
134 -115 76z"/>
<path d="M5827 8409 c-46 -27 -43 -100 5 -125 38 -20 81 -4 98 35 26 63 -44
124 -103 90z"/>
<path d="M6312 8413 c-7 -3 -19 -18 -28 -35 -13 -24 -13 -35 -4 -58 31 -74
140 -51 140 30 0 45 -63 81 -108 63z"/>
<path d="M6795 8408 c-28 -16 -35 -28 -35 -65 0 -41 42 -77 80 -68 58 14 78
78 35 120 -26 27 -49 31 -80 13z"/>
<path d="M7275 8408 c-28 -16 -35 -28 -35 -65 0 -41 42 -77 80 -68 58 14 78
78 35 120 -26 27 -49 31 -80 13z"/>
<path d="M7746 8399 c-36 -29 -36 -80 1 -109 47 -37 113 -2 113 60 0 31 -39
70 -70 70 -10 0 -29 -9 -44 -21z"/>
<path d="M8226 8399 c-19 -15 -26 -30 -26 -54 0 -37 37 -75 72 -75 29 0 68 45
68 79 0 32 -38 71 -70 71 -10 0 -29 -9 -44 -21z"/>
<path d="M8706 8399 c-52 -41 -23 -122 44 -122 67 0 96 81 44 122 -15 12 -34
21 -44 21 -10 0 -29 -9 -44 -21z"/>
<path d="M9177 8392 c-23 -25 -21 -65 3 -93 l19 -24 1 68 c0 37 -2 67 -3 67
-2 0 -11 -8 -20 -18z"/>
<path d="M307 8173 c-9 -2 -24 -18 -33 -35 -30 -59 27 -122 89 -99 89 34 37
159 -56 134z"/>
<path d="M784 8168 c-53 -25 -50 -105 5 -128 75 -31 134 58 76 115 -26 27 -47
30 -81 13z"/>
<path d="M1262 8164 c-62 -43 -32 -134 44 -134 24 0 64 47 64 75 0 30 -41 75
-67 75 -10 0 -29 -7 -41 -16z"/>
<path d="M1736 8159 c-36 -29 -36 -80 1 -109 70 -55 151 42 88 105 -30 30 -54
31 -89 4z"/>
<path d="M2216 8159 c-19 -15 -26 -30 -26 -54 0 -37 37 -75 72 -75 27 0 68 45
68 75 0 30 -41 75 -68 75 -11 0 -31 -9 -46 -21z"/>
<path d="M2696 8159 c-36 -28 -36 -80 0 -108 15 -12 34 -21 44 -21 34 0 70 39
70 75 0 36 -36 75 -70 75 -10 0 -29 -9 -44 -21z"/>
<path d="M3175 8155 c-14 -13 -25 -36 -25 -50 0 -30 41 -75 68 -75 11 0 31 9
46 21 36 28 36 80 0 108 -35 27 -59 26 -89 -4z"/>
<path d="M3655 8155 c-14 -13 -25 -36 -25 -50 0 -30 41 -75 68 -75 11 0 31 9
46 21 36 28 36 80 0 108 -35 27 -59 26 -89 -4z"/>
<path d="M4135 8155 c-41 -41 -25 -105 30 -119 25 -6 64 7 77 28 18 26 8 75
-18 95 -35 27 -59 26 -89 -4z"/>
<path d="M4615 8155 c-14 -13 -25 -36 -25 -50 0 -28 40 -75 64 -75 78 0 109
107 40 139 -37 16 -52 14 -79 -14z"/>
<path d="M5110 8167 c-80 -40 -22 -161 61 -127 56 24 59 103 3 129 -31 14 -33
14 -64 -2z"/>
<path d="M5583 8165 c-68 -48 -9 -157 68 -125 75 32 47 139 -36 140 -6 0 -20
-7 -32 -15z"/>
<path d="M6071 8168 c-51 -27 -47 -108 5 -129 56 -21 113 28 98 85 -11 45 -61
66 -103 44z"/>
<path d="M6553 8168 c-28 -14 -43 -55 -31 -89 9 -26 44 -49 74 -49 24 0 64 47
64 75 0 30 -41 75 -67 74 -10 0 -28 -5 -40 -11z"/>
<path d="M7024 8157 c-36 -31 -36 -73 1 -105 69 -59 155 39 90 103 -30 31 -56
32 -91 2z"/>
<path d="M7506 8159 c-19 -15 -26 -30 -26 -54 0 -37 37 -75 72 -75 27 0 68 45
68 75 0 30 -41 75 -68 75 -11 0 -31 -9 -46 -21z"/>
<path d="M7986 8159 c-19 -15 -26 -30 -26 -54 0 -37 37 -75 72 -75 27 0 68 45
68 75 0 30 -41 75 -68 75 -11 0 -31 -9 -46 -21z"/>
<path d="M8466 8159 c-19 -15 -26 -30 -26 -54 0 -36 36 -75 70 -75 34 0 70 39
70 75 0 36 -36 75 -70 75 -10 0 -29 -9 -44 -21z"/>
<path d="M8946 8159 c-19 -15 -26 -30 -26 -54 0 -36 36 -75 70 -75 34 0 70 39
70 75 0 36 -36 75 -70 75 -10 0 -29 -9 -44 -21z"/>
<path d="M63 7928 c-76 -37 -30 -153 52 -132 30 8 43 23 51 60 10 54 -52 98
-103 72z"/>
<path d="M544 7929 c-53 -27 -50 -106 5 -129 69 -28 131 52 84 108 -22 26 -61
35 -89 21z"/>
<path d="M1022 7924 c-71 -49 -19 -155 61 -125 51 19 62 77 22 116 -28 29 -51
31 -83 9z"/>
<path d="M1497 7920 c-37 -29 -37 -80 -1 -109 35 -27 59 -26 89 4 63 63 -18
160 -88 105z"/>
<path d="M1976 7919 c-19 -15 -26 -30 -26 -54 0 -37 37 -75 72 -75 27 0 68 45
68 75 0 30 -41 75 -68 75 -11 0 -31 -9 -46 -21z"/>
<path d="M2456 7919 c-19 -15 -26 -30 -26 -54 0 -36 36 -75 70 -75 34 0 70 39
70 75 0 36 -36 75 -70 75 -10 0 -29 -9 -44 -21z"/>
<path d="M2936 7919 c-34 -27 -35 -71 -1 -104 30 -30 54 -31 89 -4 36 28 36
80 0 108 -15 12 -34 21 -44 21 -10 0 -29 -9 -44 -21z"/>
<path d="M3415 7915 c-14 -13 -25 -36 -25 -50 0 -30 41 -75 68 -75 11 0 31 9
46 21 36 28 36 80 0 108 -35 27 -59 26 -89 -4z"/>
<path d="M3910 7927 c-56 -28 -48 -110 13 -131 67 -24 118 78 61 123 -31 24
-40 25 -74 8z"/>
<path d="M4375 7915 c-28 -27 -32 -61 -10 -92 46 -66 150 -8 123 68 -9 26 -44
49 -74 49 -8 0 -26 -11 -39 -25z"/>
<path d="M4870 7927 c-79 -40 -24 -162 58 -128 59 25 63 104 6 130 -31 14 -33
14 -64 -2z"/>
<path d="M5350 7927 c-13 -7 -29 -25 -34 -39 -29 -82 90 -133 130 -56 19 37 5
80 -32 97 -31 14 -33 14 -64 -2z"/>
<path d="M5829 7925 c-75 -41 -21 -154 60 -127 46 15 63 91 27 121 -21 18 -61
21 -87 6z"/>
<path d="M6313 7928 c-35 -17 -48 -60 -29 -96 35 -68 136 -41 136 36 0 47 -63
82 -107 60z"/>
<path d="M6793 7928 c-12 -6 -26 -22 -31 -37 -27 -76 77 -134 123 -68 22 31
18 65 -10 92 -26 27 -47 30 -82 13z"/>
<path d="M7267 7920 c-37 -29 -37 -80 -1 -109 35 -27 59 -26 89 4 63 63 -18
160 -88 105z"/>
<path d="M7746 7919 c-19 -15 -26 -30 -26 -54 0 -37 37 -75 72 -75 27 0 68 45
68 75 0 30 -41 75 -68 75 -11 0 -31 -9 -46 -21z"/>
<path d="M8226 7919 c-19 -15 -26 -30 -26 -54 0 -37 37 -75 72 -75 29 0 68 45
68 79 0 32 -38 71 -70 71 -10 0 -29 -9 -44 -21z"/>
<path d="M8706 7919 c-19 -15 -26 -30 -26 -54 0 -36 36 -75 70 -75 34 0 70 39
70 75 0 36 -36 75 -70 75 -10 0 -29 -9 -44 -21z"/>
<path d="M9177 7912 c-23 -25 -21 -65 3 -93 l19 -24 1 68 c0 37 -2 67 -3 67
-2 0 -11 -8 -20 -18z"/>
<path d="M303 7688 c-35 -17 -48 -60 -29 -96 35 -68 136 -41 136 36 0 47 -63
82 -107 60z"/>
<path d="M783 7688 c-54 -26 -43 -120 16 -133 69 -15 118 61 74 113 -22 26
-61 35 -90 20z"/>
<path d="M1257 7680 c-19 -15 -27 -30 -27 -53 0 -38 7 -50 37 -66 33 -17 51
-14 78 14 63 63 -18 160 -88 105z"/>
<path d="M1736 7679 c-26 -20 -36 -69 -18 -95 10 -15 47 -34 67 -34 25 0 65
46 65 75 0 30 -41 75 -68 75 -11 0 -31 -9 -46 -21z"/>
<path d="M2216 7679 c-19 -15 -26 -30 -26 -54 0 -36 36 -75 70 -75 10 0 29 9
44 21 34 27 35 71 1 104 -30 30 -54 31 -89 4z"/>
<path d="M2720 7693 c-56 -21 -68 -87 -24 -122 15 -12 34 -21 44 -21 34 0 70
39 70 75 0 49 -46 84 -90 68z"/>
<path d="M3175 7675 c-34 -33 -33 -77 1 -104 15 -12 34 -21 44 -21 10 0 29 9
44 21 36 28 36 80 0 108 -35 27 -59 26 -89 -4z"/>
<path d="M3670 7687 c-56 -28 -48 -110 13 -131 67 -24 118 78 61 123 -31 24
-40 25 -74 8z"/>
<path d="M4152 7690 c-49 -20 -54 -95 -7 -126 73 -48 147 61 79 115 -29 23
-38 24 -72 11z"/>
<path d="M4630 7687 c-79 -40 -24 -162 58 -128 58 24 61 104 6 130 -31 14 -33
14 -64 -2z"/>
<path d="M5110 7687 c-79 -40 -24 -162 58 -128 59 25 63 104 6 130 -31 14 -33
14 -64 -2z"/>
<path d="M5590 7687 c-52 -26 -49 -104 5 -129 58 -26 119 33 95 91 -6 16 -23
33 -36 40 -31 14 -33 14 -64 -2z"/>
<path d="M6073 7688 c-51 -25 -50 -108 3 -128 85 -33 145 83 64 125 -33 17
-37 17 -67 3z"/>
<path d="M6553 7688 c-12 -6 -27 -24 -32 -40 -29 -82 88 -135 129 -58 33 61
-34 129 -97 98z"/>
<path d="M7026 7679 c-26 -20 -36 -69 -18 -95 10 -15 47 -34 67 -34 25 0 65
46 65 75 0 30 -41 75 -68 75 -11 0 -31 -9 -46 -21z"/>
<path d="M7507 7680 c-37 -29 -37 -80 -1 -109 35 -27 59 -26 89 4 63 63 -18
160 -88 105z"/>
<path d="M7986 7679 c-19 -15 -26 -30 -26 -54 0 -36 36 -75 70 -75 34 0 70 39
70 75 0 36 -36 75 -70 75 -10 0 -29 -9 -44 -21z"/>
<path d="M8467 7680 c-37 -29 -37 -80 -1 -109 15 -12 34 -21 44 -21 33 0 70
39 70 74 0 60 -66 93 -113 56z"/>
<path d="M8946 7679 c-19 -15 -26 -30 -26 -54 0 -36 36 -75 70 -75 34 0 70 39
70 75 0 36 -36 75 -70 75 -10 0 -29 -9 -44 -21z"/>
<path d="M63 7448 c-30 -15 -46 -58 -34 -91 20 -51 77 -62 118 -21 20 20 24
31 19 57 -4 17 -12 37 -19 44 -18 18 -59 23 -84 11z"/>
<path d="M538 7440 c-35 -27 -42 -53 -24 -88 25 -49 73 -56 111 -17 29 28 32
65 8 93 -27 32 -64 37 -95 12z"/>
<path d="M1022 7444 c-62 -43 -32 -134 44 -134 23 0 64 47 64 73 0 55 -65 92
-108 61z"/>
<path d="M1497 7440 c-19 -15 -27 -30 -27 -53 0 -38 7 -50 37 -66 33 -17 51
-14 78 14 63 63 -18 160 -88 105z"/>
<path d="M2000 7453 c-48 -18 -68 -84 -34 -117 43 -43 116 -19 122 41 5 47
-46 91 -88 76z"/>
<path d="M2457 7440 c-37 -29 -37 -80 -1 -109 15 -12 34 -21 44 -21 33 0 70
39 70 74 0 60 -66 93 -113 56z"/>
<path d="M2953 7450 c-26 -11 -43 -40 -43 -74 0 -27 41 -66 70 -66 10 0 29 9
44 21 63 49 4 149 -71 119z"/>
<path d="M3430 7447 c-56 -28 -48 -110 13 -131 22 -8 33 -6 55 11 70 52 10
159 -68 120z"/>
<path d="M3912 7450 c-49 -20 -54 -95 -7 -126 73 -48 147 61 79 115 -29 23
-38 24 -72 11z"/>
<path d="M4390 7447 c-55 -28 -48 -110 13 -131 77 -27 124 80 55 128 -27 19
-35 20 -68 3z"/>
<path d="M4872 7450 c-28 -12 -46 -51 -38 -84 15 -62 102 -72 132 -15 18 36
12 62 -23 89 -28 22 -37 23 -71 10z"/>
<path d="M5348 7445 c-53 -29 -42 -116 16 -131 37 -9 64 4 82 38 19 37 5 80
-32 97 -31 14 -33 14 -66 -4z"/>
<path d="M5829 7445 c-74 -40 -20 -157 59 -129 38 13 57 57 42 93 -6 16 -23
33 -36 40 -31 14 -33 14 -65 -4z"/>
<path d="M6313 7448 c-68 -33 -40 -138 37 -138 28 0 70 44 70 73 0 51 -61 88
-107 65z"/>
<path d="M6787 7438 c-37 -33 -40 -75 -7 -108 27 -27 66 -25 95 5 29 28 32 65
8 93 -28 33 -66 37 -96 10z"/>
<path d="M7267 7440 c-19 -15 -27 -30 -27 -53 0 -38 7 -50 37 -66 33 -17 51
-14 78 14 63 63 -18 160 -88 105z"/>
<path d="M7770 7453 c-55 -20 -68 -87 -24 -122 15 -12 35 -21 46 -21 27 0 68
44 68 73 0 44 -51 84 -90 70z"/>
<path d="M8250 7453 c-55 -20 -68 -87 -24 -122 15 -12 34 -21 44 -21 31 0 70
39 70 70 0 47 -50 87 -90 73z"/>
<path d="M8707 7440 c-37 -29 -37 -80 -1 -109 15 -12 34 -21 44 -21 33 0 70
39 70 74 0 60 -66 93 -113 56z"/>
<path d="M9176 7428 c-22 -31 -20 -71 4 -93 20 -18 20 -17 20 48 0 37 -2 67
-4 67 -3 0 -12 -10 -20 -22z"/>
<path d="M288 7190 c-24 -25 -29 -36 -24 -58 15 -60 79 -80 121 -37 39 38 32
86 -16 110 -39 21 -46 19 -81 -15z"/>
<path d="M793 7210 c-12 -5 -30 -21 -39 -35 -16 -24 -16 -29 -1 -60 38 -80
155 -37 133 49 -5 20 -52 59 -68 55 -2 0 -13 -4 -25 -9z"/>
<path d="M1262 7204 c-62 -43 -32 -134 44 -134 23 0 64 47 64 73 0 55 -65 92
-108 61z"/>
<path d="M1760 7213 c-74 -27 -60 -143 17 -143 31 0 73 42 73 73 0 44 -51 84
-90 70z"/>
<path d="M2240 7213 c-55 -20 -68 -87 -24 -122 15 -12 35 -21 46 -21 27 0 68
44 68 73 0 44 -51 84 -90 70z"/>
<path d="M2713 7210 c-26 -11 -43 -40 -43 -74 0 -27 41 -66 70 -66 10 0 29 9
44 21 63 49 4 149 -71 119z"/>
<path d="M3193 7210 c-49 -20 -56 -90 -11 -123 47 -35 108 -3 108 57 0 50 -50
84 -97 66z"/>
<path d="M3673 7210 c-49 -20 -56 -90 -11 -123 73 -54 153 56 82 112 -29 23
-38 24 -71 11z"/>
<path d="M4152 7210 c-49 -20 -54 -95 -7 -126 47 -31 105 3 105 60 0 51 -50
84 -98 66z"/>
<path d="M4630 7207 c-76 -38 -28 -154 55 -133 29 7 56 56 48 87 -11 41 -65
65 -103 46z"/>
<path d="M5110 7207 c-52 -26 -49 -104 5 -129 58 -26 119 33 95 91 -6 16 -23
33 -36 40 -31 14 -33 14 -64 -2z"/>
<path d="M5593 7208 c-12 -6 -27 -24 -34 -40 -35 -84 90 -137 129 -55 17 36 2
79 -34 96 -29 13 -32 13 -61 -1z"/>
<path d="M6073 7208 c-81 -39 -20 -167 62 -130 55 25 55 105 -1 131 -29 13
-32 13 -61 -1z"/>
<path d="M6560 7207 c-70 -35 -48 -137 30 -137 28 0 70 44 70 73 0 51 -55 86
-100 64z"/>
<path d="M7050 7213 c-43 -16 -66 -74 -42 -109 10 -15 47 -34 67 -34 24 0 65
46 65 73 0 44 -51 84 -90 70z"/>
<path d="M7530 7213 c-48 -18 -68 -84 -34 -117 43 -43 116 -19 122 41 5 47
-46 91 -88 76z"/>
<path d="M8010 7213 c-55 -20 -68 -87 -24 -122 15 -12 34 -21 44 -21 31 0 70
39 70 70 0 47 -50 87 -90 73z"/>
<path d="M8490 7213 c-55 -20 -68 -87 -24 -122 15 -12 34 -21 44 -21 31 0 70
39 70 70 0 47 -50 87 -90 73z"/>
<path d="M8963 7210 c-26 -11 -43 -40 -43 -74 0 -27 41 -66 70 -66 10 0 29 9
44 21 63 49 4 149 -71 119z"/>
<path d="M550 6967 c-14 -7 -31 -25 -38 -40 -27 -56 36 -115 94 -88 54 24 56
99 4 126 -35 18 -29 18 -60 2z"/>
<path d="M1030 6967 c-14 -7 -31 -25 -38 -40 -22 -45 15 -97 69 -97 28 0 69
44 69 73 0 51 -55 86 -100 64z"/>
<path d="M2000 6973 c-43 -16 -66 -74 -42 -109 10 -15 47 -34 67 -34 24 0 65
46 65 73 0 44 -51 84 -90 70z"/>
<path d="M2953 6970 c-48 -19 -58 -87 -17 -119 35 -27 65 -27 92 2 54 57 -3
145 -75 117z"/>
<path d="M3433 6970 c-26 -11 -43 -40 -43 -74 0 -27 41 -66 70 -66 10 0 29 9
44 21 63 49 4 149 -71 119z"/>
<path d="M4393 6970 c-47 -19 -56 -78 -18 -115 47 -48 115 -19 115 48 0 51
-50 86 -97 67z"/>
<path d="M5354 6968 c-22 -10 -44 -47 -44 -74 0 -23 47 -64 73 -64 32 0 64 28
72 61 12 49 -55 99 -101 77z"/>
<path d="M5833 6968 c-12 -6 -27 -24 -34 -40 -35 -84 90 -137 129 -55 19 39 1
82 -40 96 -17 6 -31 11 -32 10 -1 0 -11 -5 -23 -11z"/>
<path d="M6810 6973 c-74 -27 -62 -143 15 -143 33 0 75 42 75 73 0 44 -51 84
-90 70z"/>
<path d="M7770 6973 c-48 -18 -68 -84 -34 -117 43 -43 116 -19 122 41 5 47
-46 91 -88 76z"/>
<path d="M8250 6973 c-55 -20 -68 -87 -24 -122 15 -12 34 -21 44 -21 31 0 70
39 70 70 0 47 -50 87 -90 73z"/>
<path d="M40 6943 c-55 -70 42 -151 105 -88 28 27 31 45 14 78 -16 30 -28 37
-66 37 -23 0 -38 -8 -53 -27z"/>
<path d="M1487 6952 c-39 -42 -5 -122 50 -122 31 0 73 43 73 75 0 56 -86 89
-123 47z"/>
<path d="M2447 6952 c-24 -27 -21 -74 6 -100 29 -28 57 -28 91 -1 30 24 34 63
10 97 -20 28 -83 31 -107 4z"/>
<path d="M3886 6948 c-23 -32 -20 -65 9 -93 47 -48 115 -19 115 48 0 43 -26
67 -73 67 -26 0 -40 -6 -51 -22z"/>
<path d="M4850 6950 c-27 -27 -25 -66 5 -95 38 -39 86 -32 110 16 37 70 -58
136 -115 79z"/>
<path d="M6304 6962 c-21 -13 -34 -52 -28 -77 14 -55 78 -71 119 -30 30 29 32
68 5 95 -20 20 -74 27 -96 12z"/>
<path d="M7257 6952 c-23 -25 -21 -78 3 -102 27 -27 66 -25 95 5 29 28 32 61
9 93 -20 28 -83 31 -107 4z"/>
<path d="M8696 6948 c-24 -34 -20 -73 10 -97 15 -12 34 -21 44 -21 10 0 29 9
44 21 32 25 36 77 8 102 -28 25 -87 22 -106 -5z"/>
<path d="M9176 6948 c-22 -31 -20 -71 4 -93 20 -18 20 -17 20 48 0 37 -2 67
-4 67 -3 0 -12 -10 -20 -22z"/>
<path d="M789 6727 c-37 -19 -50 -54 -35 -91 24 -58 102 -58 128 -1 26 57 -37
119 -93 92z"/>
<path d="M1760 6733 c-51 -19 -68 -85 -30 -123 54 -54 142 12 114 85 -5 13
-56 47 -66 44 -2 0 -10 -3 -18 -6z"/>
<path d="M2240 6733 c-51 -19 -68 -85 -30 -123 61 -61 159 33 103 98 -20 23
-50 33 -73 25z"/>
<path d="M3193 6730 c-48 -19 -58 -87 -17 -119 34 -27 64 -27 92 -1 57 53 -3
149 -75 120z"/>
<path d="M4163 6732 c-28 -4 -53 -38 -53 -70 0 -31 43 -72 75 -72 35 0 65 33
65 73 0 48 -38 77 -87 69z"/>
<path d="M4632 6725 c-78 -34 -32 -152 52 -131 33 8 59 57 47 88 -17 46 -54
61 -99 43z"/>
<path d="M5599 6728 c-16 -5 -32 -22 -39 -39 -36 -85 89 -139 128 -56 28 58
-27 116 -89 95z"/>
<path d="M6559 6727 c-13 -7 -30 -25 -37 -40 -11 -22 -10 -31 3 -57 27 -53
102 -50 127 5 26 57 -37 119 -93 92z"/>
<path d="M7050 6732 c-74 -23 -61 -142 15 -142 32 0 75 41 75 72 0 47 -47 83
-90 70z"/>
<path d="M8010 6732 c-52 -16 -68 -85 -28 -122 28 -26 58 -26 92 1 58 46 7
143 -64 121z"/>
<path d="M8963 6730 c-48 -19 -58 -87 -17 -119 35 -27 65 -27 92 2 52 56 -5
145 -75 117z"/>
<path d="M280 6703 c-55 -70 42 -151 105 -88 28 27 31 45 14 78 -16 30 -28 37
-66 37 -23 0 -38 -8 -53 -27z"/>
<path d="M1247 6712 c-39 -43 -7 -122 48 -122 33 0 75 42 75 75 0 56 -86 89
-123 47z"/>
<path d="M2686 6708 c-23 -32 -20 -71 7 -96 64 -61 153 23 101 96 -11 16 -25
22 -54 22 -29 0 -43 -6 -54 -22z"/>
<path d="M3650 6710 c-43 -43 -7 -120 56 -120 55 0 87 86 46 123 -25 23 -78
21 -102 -3z"/>
<path d="M5090 6710 c-27 -27 -25 -66 5 -95 63 -63 160 18 105 88 -27 34 -80
37 -110 7z"/>
<path d="M6051 6704 c-12 -15 -21 -35 -21 -46 0 -27 45 -68 75 -68 29 0 75 40
75 65 0 20 -19 57 -34 67 -26 18 -75 8 -95 -18z"/>
<path d="M7497 6712 c-38 -42 -7 -122 47 -122 63 0 99 77 56 120 -26 26 -81
26 -103 2z"/>
<path d="M8457 6712 c-24 -27 -21 -74 6 -100 30 -28 68 -28 95 1 26 27 28 64
6 95 -20 28 -83 31 -107 4z"/>
<path d="M549 6486 c-13 -6 -30 -23 -38 -37 -12 -22 -12 -29 0 -54 40 -84 165
-32 129 54 -15 37 -57 54 -91 37z"/>
<path d="M1029 6487 c-37 -19 -50 -54 -35 -91 24 -58 102 -58 128 -1 26 57
-37 119 -93 92z"/>
<path d="M2000 6492 c-51 -16 -68 -84 -30 -122 60 -60 154 26 105 97 -15 21
-50 33 -75 25z"/>
<path d="M2963 6492 c-51 -8 -70 -83 -30 -120 47 -44 117 -13 117 52 0 47 -38
76 -87 68z"/>
<path d="M3433 6485 c-51 -21 -59 -81 -17 -114 53 -41 114 -13 114 52 0 54
-46 83 -97 62z"/>
<path d="M4392 6484 c-79 -33 -31 -151 53 -130 28 7 57 58 47 85 -16 48 -54
65 -100 45z"/>
<path d="M5359 6488 c-38 -13 -57 -62 -38 -97 32 -57 111 -49 132 13 17 51
-40 103 -94 84z"/>
<path d="M5839 6486 c-37 -18 -56 -59 -41 -90 25 -56 101 -59 131 -5 31 56
-33 124 -90 95z"/>
<path d="M6799 6487 c-52 -27 -56 -99 -6 -127 54 -30 122 27 102 86 -13 37
-62 57 -96 41z"/>
<path d="M40 6463 c-55 -70 42 -151 105 -88 28 27 31 45 14 78 -16 30 -28 37
-66 37 -23 0 -38 -8 -53 -27z"/>
<path d="M1487 6472 c-39 -43 -7 -122 48 -122 33 0 75 42 75 75 0 56 -86 89
-123 47z"/>
<path d="M2447 6472 c-24 -26 -21 -77 5 -102 63 -58 152 26 102 98 -20 28 -83
31 -107 4z"/>
<path d="M3890 6470 c-43 -43 -7 -120 56 -120 55 0 87 86 46 123 -25 23 -78
21 -102 -3z"/>
<path d="M4850 6468 c-27 -29 -25 -64 5 -93 63 -63 160 18 105 88 -28 35 -80
37 -110 5z"/>
<path d="M6290 6463 c-55 -70 42 -151 105 -88 28 27 31 45 14 78 -16 30 -28
37 -66 37 -23 0 -38 -8 -53 -27z"/>
<path d="M7257 6472 c-38 -42 -7 -122 47 -122 63 0 99 77 56 120 -26 26 -81
26 -103 2z"/>
<path d="M7737 6472 c-38 -42 -7 -122 47 -122 63 0 99 77 56 120 -26 26 -81
26 -103 2z"/>
<path d="M8216 6468 c-52 -74 41 -160 102 -95 46 48 17 117 -48 117 -29 0 -43
-6 -54 -22z"/>
<path d="M8696 6468 c-23 -32 -20 -71 7 -96 30 -28 68 -28 95 1 46 48 17 117
-48 117 -29 0 -43 -6 -54 -22z"/>
<path d="M9176 6468 c-22 -31 -20 -71 4 -93 20 -18 20 -17 20 48 0 37 -2 67
-4 67 -3 0 -12 -10 -20 -22z"/>
<path d="M280 6223 c-55 -70 42 -151 105 -88 28 27 31 45 14 78 -16 30 -28 37
-66 37 -23 0 -38 -8 -53 -27z"/>
<path d="M765 6230 c-41 -45 -9 -120 52 -120 31 0 73 42 73 73 0 58 -86 90
-125 47z"/>
<path d="M1247 6232 c-39 -43 -7 -122 48 -122 33 0 75 42 75 75 0 56 -86 89
-123 47z"/>
<path d="M1727 6232 c-39 -43 -7 -122 48 -122 33 0 75 42 75 75 0 56 -86 89
-123 47z"/>
<path d="M2207 6232 c-40 -44 -7 -122 51 -122 60 0 94 78 52 120 -26 26 -81
26 -103 2z"/>
<path d="M2686 6228 c-35 -50 -4 -118 54 -118 59 0 95 85 52 123 -28 25 -87
22 -106 -5z"/>
<path d="M3170 6230 c-42 -42 -8 -120 53 -120 58 0 91 85 49 123 -25 23 -78
21 -102 -3z"/>
<path d="M3650 6230 c-42 -42 -8 -120 53 -120 58 0 91 85 49 123 -25 23 -78
21 -102 -3z"/>
<path d="M4130 6230 c-26 -26 -25 -60 1 -94 41 -52 119 -21 119 47 0 20 -8 41
-18 50 -25 23 -78 21 -102 -3z"/>
<path d="M4610 6230 c-27 -27 -25 -66 5 -95 29 -30 64 -32 96 -7 28 23 30 73
4 102 -24 26 -79 26 -105 0z"/>
<path d="M5104 6242 c-15 -10 -34 -47 -34 -67 0 -24 46 -65 73 -65 61 0 93 75
52 120 -18 20 -69 27 -91 12z"/>
<path d="M5571 6224 c-12 -15 -21 -35 -21 -46 0 -27 45 -68 75 -68 30 0 75 41
75 68 0 35 -38 72 -75 72 -24 0 -39 -7 -54 -26z"/>
<path d="M6050 6223 c-55 -70 42 -151 105 -88 30 30 31 54 4 89 -29 36 -80 36
-109 -1z"/>
<path d="M6535 6230 c-41 -45 -9 -120 52 -120 31 0 73 42 73 75 0 57 -86 89
-125 45z"/>
<path d="M7017 6232 c-40 -44 -7 -122 51 -122 60 0 94 78 52 120 -26 26 -81
26 -103 2z"/>
<path d="M7497 6232 c-38 -42 -7 -122 47 -122 63 0 99 77 56 120 -26 26 -81
26 -103 2z"/>
<path d="M7977 6232 c-40 -44 -7 -122 51 -122 60 0 94 78 52 120 -26 26 -81
26 -103 2z"/>
<path d="M8457 6232 c-24 -26 -21 -77 5 -102 63 -58 152 26 102 98 -20 28 -83
31 -107 4z"/>
<path d="M8936 6228 c-34 -49 -2 -118 55 -118 58 0 93 85 51 123 -28 25 -87
22 -106 -5z"/>
<path d="M40 5983 c-55 -70 42 -151 105 -88 30 30 31 54 4 89 -29 36 -80 36
-109 -1z"/>
<path d="M525 5990 c-41 -45 -9 -120 52 -120 27 0 73 41 73 65 0 20 -19 57
-34 67 -22 15 -73 8 -91 -12z"/>
<path d="M1005 5990 c-42 -47 -8 -120 55 -120 33 0 70 40 70 74 0 57 -86 89
-125 46z"/>
<path d="M1487 5992 c-38 -42 -7 -122 47 -122 63 0 99 77 56 120 -26 26 -81
26 -103 2z"/>
<path d="M1967 5992 c-40 -44 -7 -122 51 -122 60 0 94 78 52 120 -26 26 -81
26 -103 2z"/>
<path d="M2447 5992 c-40 -44 -7 -122 51 -122 59 0 92 67 56 118 -20 28 -83
31 -107 4z"/>
<path d="M2930 5990 c-42 -42 -8 -120 53 -120 58 0 91 85 49 123 -25 23 -78
21 -102 -3z"/>
<path d="M3410 5990 c-42 -42 -8 -120 53 -120 58 0 91 85 49 123 -25 23 -78
21 -102 -3z"/>
<path d="M3890 5990 c-26 -26 -25 -60 1 -94 41 -52 119 -21 119 47 0 20 -8 41
-18 50 -25 23 -78 21 -102 -3z"/>
<path d="M4370 5988 c-59 -64 38 -160 100 -98 26 26 26 81 2 103 -26 24 -77
21 -102 -5z"/>
<path d="M4850 5988 c-27 -29 -25 -64 5 -93 45 -46 118 -19 118 43 0 66 -78
98 -123 50z"/>
<path d="M5331 5984 c-27 -35 -26 -59 4 -89 63 -63 160 18 105 88 -29 37 -80
37 -109 1z"/>
<path d="M5811 5984 c-12 -15 -21 -35 -21 -46 0 -27 45 -68 75 -68 30 0 75 41
75 68 0 35 -38 72 -75 72 -24 0 -39 -7 -54 -26z"/>
<path d="M6290 5983 c-55 -70 42 -151 105 -88 30 29 32 64 5 93 -30 32 -82 30
-110 -5z"/>
<path d="M6777 5992 c-40 -44 -6 -122 52 -122 34 0 71 39 71 74 0 56 -86 89
-123 48z"/>
<path d="M7257 5992 c-40 -44 -6 -122 52 -122 34 0 71 39 71 76 0 55 -86 87
-123 46z"/>
<path d="M7737 5992 c-40 -44 -7 -122 51 -122 60 0 94 78 52 120 -26 26 -81
26 -103 2z"/>
<path d="M8217 5992 c-40 -44 -7 -122 51 -122 60 0 94 78 52 120 -26 26 -81
26 -103 2z"/>
<path d="M8696 5988 c-23 -32 -20 -74 6 -98 64 -59 153 25 102 98 -11 16 -25
22 -54 22 -29 0 -43 -6 -54 -22z"/>
<path d="M9170 5981 c-16 -31 -12 -66 10 -86 20 -18 20 -17 20 43 0 63 -11 78
-30 43z"/>
<path d="M285 5750 c-26 -29 -24 -79 4 -102 34 -27 75 -23 100 8 26 34 26 54
0 88 -26 33 -77 36 -104 6z"/>
<path d="M765 5750 c-26 -29 -24 -79 5 -102 70 -57 158 42 94 106 -22 23 -77
20 -99 -4z"/>
<path d="M1245 5750 c-41 -46 -7 -120 55 -120 33 0 70 40 70 74 0 57 -86 89
-125 46z"/>
<path d="M1727 5752 c-40 -44 -7 -122 51 -122 60 0 94 78 52 120 -26 26 -81
26 -103 2z"/>
<path d="M2212 5754 c-15 -11 -22 -25 -22 -50 0 -67 73 -99 118 -51 61 65 -22
153 -96 101z"/>
<path d="M2690 5750 c-43 -43 -11 -120 50 -120 38 0 70 32 70 70 0 38 -32 70
-70 70 -17 0 -39 -9 -50 -20z"/>
<path d="M3170 5750 c-27 -27 -26 -71 3 -98 65 -61 153 22 101 96 -20 29 -76
30 -104 2z"/>
<path d="M3650 5750 c-42 -42 -8 -120 53 -120 58 0 91 85 49 123 -25 23 -78
21 -102 -3z"/>
<path d="M4130 5748 c-58 -63 27 -152 98 -102 28 20 31 83 4 107 -26 24 -77
21 -102 -5z"/>
<path d="M4610 5748 c-59 -64 32 -155 99 -100 28 22 31 75 6 102 -25 27 -78
26 -105 -2z"/>
<path d="M5091 5744 c-12 -15 -21 -34 -21 -44 0 -31 39 -70 70 -70 62 0 97 66
60 113 -29 37 -80 37 -109 1z"/>
<path d="M5571 5744 c-27 -35 -26 -59 4 -89 63 -63 160 18 105 88 -29 37 -80
37 -109 1z"/>
<path d="M6051 5744 c-27 -35 -26 -59 4 -89 33 -34 77 -33 104 1 12 15 21 34
21 44 0 34 -39 70 -75 70 -24 0 -39 -7 -54 -26z"/>
<path d="M6536 5751 c-42 -47 -9 -121 54 -121 33 0 70 40 70 74 0 56 -86 89
-124 47z"/>
<path d="M7017 5752 c-25 -28 -22 -87 5 -106 50 -35 118 0 118 60 0 55 -86 87
-123 46z"/>
<path d="M7497 5752 c-40 -44 -7 -122 51 -122 60 0 94 78 52 120 -26 26 -81
26 -103 2z"/>
<path d="M7976 5748 c-53 -75 41 -161 102 -95 45 48 14 117 -52 117 -25 0 -39
-7 -50 -22z"/>
<path d="M8460 5750 c-11 -11 -20 -33 -20 -50 0 -62 73 -92 118 -50 46 43 15
120 -48 120 -17 0 -39 -9 -50 -20z"/>
<path d="M8940 5750 c-27 -27 -26 -74 2 -100 45 -42 118 -12 118 50 0 17 -9
39 -20 50 -11 11 -33 20 -50 20 -17 0 -39 -9 -50 -20z"/>
<path d="M41 5504 c-12 -15 -21 -34 -21 -44 0 -34 39 -70 75 -70 36 0 75 36
75 70 0 34 -39 70 -75 70 -24 0 -39 -7 -54 -26z"/>
<path d="M525 5510 c-26 -29 -24 -79 4 -102 34 -27 75 -23 100 8 26 34 26 54
0 88 -26 33 -77 36 -104 6z"/>
<path d="M1005 5510 c-41 -46 -7 -120 55 -120 33 0 70 40 70 74 0 57 -86 89
-125 46z"/>
<path d="M1487 5512 c-40 -44 -7 -122 51 -122 35 0 72 37 72 71 0 58 -85 93
-123 51z"/>
<path d="M1967 5512 c-40 -44 -7 -122 51 -122 60 0 94 78 52 120 -26 26 -81
26 -103 2z"/>
<path d="M2450 5510 c-43 -43 -11 -120 50 -120 38 0 70 32 70 70 0 38 -32 70
-70 70 -17 0 -39 -9 -50 -20z"/>
<path d="M2930 5510 c-43 -43 -11 -120 50 -120 38 0 70 32 70 70 0 38 -32 70
-70 70 -17 0 -39 -9 -50 -20z"/>
<path d="M3410 5510 c-42 -42 -8 -120 53 -120 58 0 91 85 49 123 -25 23 -78
21 -102 -3z"/>
<path d="M3890 5510 c-61 -61 27 -154 98 -104 28 20 31 83 4 107 -25 23 -78
21 -102 -3z"/>
<path d="M4370 5508 c-59 -64 32 -155 99 -100 28 22 31 75 6 102 -25 27 -78
26 -105 -2z"/>
<path d="M4851 5504 c-12 -15 -21 -34 -21 -44 0 -10 9 -29 21 -44 39 -50 122
-22 122 42 0 69 -80 99 -122 46z"/>
<path d="M5331 5504 c-12 -15 -21 -34 -21 -44 0 -10 9 -29 21 -44 39 -50 122
-22 122 42 0 69 -80 99 -122 46z"/>
<path d="M5811 5504 c-12 -15 -21 -34 -21 -44 0 -32 39 -70 71 -70 34 0 79 39
79 68 0 35 -38 72 -75 72 -24 0 -39 -7 -54 -26z"/>
<path d="M6290 5503 c-37 -47 -4 -113 56 -113 35 0 74 37 74 70 0 10 -9 29
-21 44 -29 36 -80 36 -109 -1z"/>
<path d="M6775 5510 c-41 -46 -7 -120 55 -120 33 0 70 40 70 74 0 57 -86 89
-125 46z"/>
<path d="M7262 5514 c-16 -11 -22 -25 -22 -54 0 -29 6 -43 22 -54 32 -23 71
-20 96 7 61 65 -22 153 -96 101z"/>
<path d="M7737 5512 c-40 -45 -6 -122 53 -122 17 0 39 9 50 20 45 45 11 120
-53 120 -20 0 -41 -8 -50 -18z"/>
<path d="M8220 5510 c-11 -11 -20 -33 -20 -50 0 -17 9 -39 20 -50 11 -11 33
-20 50 -20 17 0 39 9 50 20 11 11 20 33 20 50 0 17 -9 39 -20 50 -11 11 -33
20 -50 20 -17 0 -39 -9 -50 -20z"/>
<path d="M8700 5510 c-11 -11 -20 -33 -20 -50 0 -17 9 -39 20 -50 11 -11 33
-20 50 -20 17 0 39 9 50 20 11 11 20 33 20 50 0 17 -9 39 -20 50 -11 11 -33
20 -50 20 -17 0 -39 -9 -50 -20z"/>
<path d="M9170 5501 c-14 -27 -12 -62 4 -83 21 -29 26 -21 26 42 0 61 -11 76
-30 41z"/>
<path d="M285 5270 c-26 -29 -24 -79 4 -102 34 -27 75 -23 100 8 26 34 26 54
0 88 -26 33 -77 36 -104 6z"/>
<path d="M765 5270 c-42 -47 -8 -120 55 -120 31 0 70 39 70 70 0 10 -9 29 -21
44 -26 33 -77 36 -104 6z"/>
<path d="M1252 5274 c-16 -11 -22 -25 -22 -54 0 -29 6 -43 22 -54 32 -23 71
-20 96 7 28 30 28 68 -1 95 -27 26 -64 28 -95 6z"/>
<path d="M1727 5272 c-25 -28 -22 -87 5 -106 49 -34 118 -2 118 55 0 58 -85
93 -123 51z"/>
<path d="M2210 5270 c-43 -43 -11 -120 50 -120 38 0 70 32 70 70 0 38 -32 70
-70 70 -17 0 -39 -9 -50 -20z"/>
<path d="M2690 5270 c-43 -43 -11 -120 50 -120 38 0 70 32 70 70 0 38 -32 70
-70 70 -17 0 -39 -9 -50 -20z"/>
<path d="M3170 5270 c-43 -43 -11 -120 50 -120 41 0 70 31 70 74 0 60 -77 89
-120 46z"/>
<path d="M3650 5270 c-61 -61 27 -154 98 -104 16 11 22 25 22 54 0 29 -6 43
-22 54 -31 22 -74 20 -98 -4z"/>
<path d="M4130 5268 c-58 -63 26 -152 98 -102 16 11 22 25 22 54 0 29 -6 43
-22 54 -32 23 -74 20 -98 -6z"/>
<path d="M4611 5264 c-12 -15 -21 -34 -21 -44 0 -10 9 -29 21 -44 39 -50 122
-22 122 42 0 69 -80 99 -122 46z"/>
<path d="M5091 5264 c-12 -15 -21 -34 -21 -44 0 -10 9 -29 21 -44 39 -50 122
-22 122 42 0 69 -80 99 -122 46z"/>
<path d="M5571 5264 c-12 -15 -21 -34 -21 -44 0 -34 39 -70 75 -70 36 0 75 36
75 70 0 34 -39 70 -75 70 -24 0 -39 -7 -54 -26z"/>
<path d="M6051 5264 c-12 -15 -21 -34 -21 -44 0 -34 39 -70 75 -70 36 0 75 36
75 70 0 34 -39 70 -75 70 -24 0 -39 -7 -54 -26z"/>
<path d="M6535 5270 c-42 -47 -8 -120 55 -120 31 0 70 39 70 70 0 10 -9 29
-21 44 -26 33 -77 36 -104 6z"/>
<path d="M7022 5274 c-16 -11 -22 -25 -22 -54 0 -29 6 -43 22 -54 32 -23 71
-20 96 7 61 64 -23 153 -96 101z"/>
<path d="M7502 5274 c-16 -11 -22 -25 -22 -54 0 -29 6 -43 22 -54 32 -23 71
-20 96 7 61 65 -22 153 -96 101z"/>
<path d="M7980 5270 c-11 -11 -20 -33 -20 -50 0 -17 9 -39 20 -50 11 -11 33
-20 50 -20 17 0 39 9 50 20 11 11 20 33 20 50 0 17 -9 39 -20 50 -11 11 -33
20 -50 20 -17 0 -39 -9 -50 -20z"/>
<path d="M8460 5270 c-11 -11 -20 -33 -20 -50 0 -17 9 -39 20 -50 11 -11 33
-20 50 -20 17 0 39 9 50 20 11 11 20 33 20 50 0 17 -9 39 -20 50 -11 11 -33
20 -50 20 -17 0 -39 -9 -50 -20z"/>
<path d="M8940 5270 c-11 -11 -20 -33 -20 -50 0 -17 9 -39 20 -50 11 -11 33
-20 50 -20 17 0 39 9 50 20 11 11 20 33 20 50 0 17 -9 39 -20 50 -11 11 -33
20 -50 20 -17 0 -39 -9 -50 -20z"/>
<path d="M45 5030 c-10 -11 -18 -34 -18 -50 0 -67 81 -96 122 -44 26 34 26 54
0 88 -26 33 -77 36 -104 6z"/>
<path d="M529 5032 c-48 -40 -17 -122 47 -122 35 0 74 37 74 70 0 10 -9 29
-21 44 -25 31 -66 35 -100 8z"/>
<path d="M1006 5031 c-62 -69 39 -166 102 -98 28 29 28 57 1 91 -25 32 -77 36
-103 7z"/>
<path d="M1492 5034 c-31 -21 -31 -87 0 -108 32 -23 71 -20 96 7 61 64 -23
153 -96 101z"/>
<path d="M1970 5030 c-28 -28 -27 -84 2 -104 50 -35 118 -5 118 52 0 62 -77
95 -120 52z"/>
<path d="M2450 5030 c-11 -11 -20 -33 -20 -50 0 -17 9 -39 20 -50 11 -11 33
-20 50 -20 17 0 39 9 50 20 11 11 20 33 20 50 0 17 -9 39 -20 50 -11 11 -33
20 -50 20 -17 0 -39 -9 -50 -20z"/>
<path d="M2930 5030 c-11 -11 -20 -33 -20 -50 0 -17 9 -39 20 -50 11 -11 33
-20 50 -20 17 0 39 9 50 20 11 11 20 33 20 50 0 17 -9 39 -20 50 -11 11 -33
20 -50 20 -17 0 -39 -9 -50 -20z"/>
<path d="M3410 5030 c-42 -42 -10 -120 50 -120 38 0 70 32 70 70 0 17 -9 39
-20 50 -11 11 -33 20 -50 20 -17 0 -39 -9 -50 -20z"/>
<path d="M3892 5027 c-61 -64 23 -153 96 -101 16 11 22 25 22 54 0 29 -6 43
-22 54 -32 23 -71 20 -96 -7z"/>
<path d="M4371 5024 c-27 -35 -27 -65 2 -92 47 -44 120 -15 120 48 0 66 -82
95 -122 44z"/>
<path d="M4851 5024 c-12 -15 -21 -34 -21 -44 0 -10 9 -29 21 -44 39 -50 122
-22 122 42 0 69 -80 99 -122 46z"/>
<path d="M5331 5024 c-12 -15 -21 -34 -21 -44 0 -10 9 -29 21 -44 41 -52 122
-23 122 44 0 67 -81 96 -122 44z"/>
<path d="M5811 5024 c-12 -15 -21 -34 -21 -44 0 -34 39 -70 75 -70 36 0 75 36
75 70 0 34 -39 70 -75 70 -24 0 -39 -7 -54 -26z"/>
<path d="M6291 5024 c-12 -15 -21 -34 -21 -44 0 -34 39 -70 75 -70 36 0 75 36
75 70 0 34 -39 70 -75 70 -24 0 -39 -7 -54 -26z"/>
<path d="M6780 5032 c-17 -13 -23 -29 -22 -53 2 -64 77 -92 120 -46 28 29 28
57 1 91 -25 31 -66 35 -99 8z"/>
<path d="M7262 5034 c-15 -11 -22 -25 -22 -50 0 -67 73 -99 118 -51 28 30 28
68 -1 95 -27 26 -64 28 -95 6z"/>
<path d="M7740 5030 c-11 -11 -20 -33 -20 -50 0 -63 77 -94 120 -48 42 45 12
118 -50 118 -17 0 -39 -9 -50 -20z"/>
<path d="M8220 5030 c-43 -43 -11 -120 50 -120 38 0 70 32 70 70 0 38 -32 70
-70 70 -17 0 -39 -9 -50 -20z"/>
<path d="M8700 5030 c-43 -43 -11 -120 50 -120 38 0 70 32 70 70 0 38 -32 70
-70 70 -17 0 -39 -9 -50 -20z"/>
<path d="M9170 5021 c-18 -35 -5 -101 20 -101 6 0 10 27 10 60 0 61 -11 76
-30 41z"/>
<path d="M285 4790 c-10 -11 -18 -34 -18 -50 0 -67 81 -96 122 -44 26 34 26
54 0 88 -26 33 -77 36 -104 6z"/>
<path d="M769 4792 c-48 -40 -17 -122 47 -122 35 0 74 37 74 70 0 10 -9 29
-21 44 -25 31 -66 35 -100 8z"/>
<path d="M1251 4792 c-50 -40 -17 -122 48 -122 32 0 71 37 71 67 0 59 -73 93
-119 55z"/>
<path d="M1730 4790 c-26 -26 -26 -81 -2 -103 44 -40 122 -5 122 53 0 60 -78
92 -120 50z"/>
<path d="M2210 4790 c-28 -28 -27 -84 2 -104 50 -35 118 -5 118 52 0 62 -77
95 -120 52z"/>
<path d="M2690 4790 c-11 -11 -20 -33 -20 -50 0 -17 9 -39 20 -50 11 -11 33
-20 50 -20 17 0 39 9 50 20 11 11 20 33 20 50 0 17 -9 39 -20 50 -11 11 -33
20 -50 20 -17 0 -39 -9 -50 -20z"/>
<path d="M3170 4790 c-11 -11 -20 -33 -20 -50 0 -17 9 -39 20 -50 11 -11 33
-20 50 -20 17 0 39 9 50 20 11 11 20 33 20 50 0 17 -9 39 -20 50 -11 11 -33
20 -50 20 -17 0 -39 -9 -50 -20z"/>
<path d="M3650 4788 c-60 -65 24 -154 98 -102 29 20 30 76 2 104 -27 27 -74
26 -100 -2z"/>
<path d="M4131 4784 c-27 -34 -27 -64 -1 -92 24 -26 66 -29 98 -6 16 11 22 25
22 54 0 29 -6 43 -22 54 -34 24 -73 20 -97 -10z"/>
<path d="M4611 4784 c-27 -35 -27 -65 2 -92 29 -27 78 -29 100 -4 25 28 22 87
-5 106 -34 24 -73 20 -97 -10z"/>
<path d="M5091 4784 c-12 -15 -21 -34 -21 -44 0 -34 39 -70 75 -70 65 0 93 72
48 123 -25 27 -78 22 -102 -9z"/>
<path d="M5571 4784 c-12 -15 -21 -34 -21 -44 0 -34 39 -70 75 -70 36 0 75 36
75 70 0 34 -39 70 -75 70 -24 0 -39 -7 -54 -26z"/>
<path d="M6051 4784 c-12 -15 -21 -34 -21 -44 0 -34 39 -70 75 -70 36 0 75 36
75 70 0 34 -39 70 -75 70 -24 0 -39 -7 -54 -26z"/>
<path d="M6540 4792 c-28 -23 -30 -75 -4 -103 24 -27 75 -25 102 4 28 29 28
57 1 91 -25 31 -66 35 -99 8z"/>
<path d="M7022 4794 c-16 -11 -22 -25 -22 -54 0 -29 6 -43 22 -54 74 -52 160
41 95 102 -27 26 -64 28 -95 6z"/>
<path d="M7500 4790 c-28 -28 -27 -84 2 -104 50 -35 118 -5 118 52 0 62 -77
95 -120 52z"/>
<path d="M7980 4790 c-43 -43 -11 -120 50 -120 38 0 70 32 70 70 0 38 -32 70
-70 70 -17 0 -39 -9 -50 -20z"/>
<path d="M8460 4790 c-43 -43 -11 -120 50 -120 38 0 70 32 70 70 0 38 -32 70
-70 70 -17 0 -39 -9 -50 -20z"/>
<path d="M8940 4790 c-43 -43 -11 -120 50 -120 38 0 70 32 70 70 0 38 -32 70
-70 70 -17 0 -39 -9 -50 -20z"/>
<path d="M45 4545 c-30 -30 -31 -54 -4 -89 15 -19 30 -26 54 -26 36 0 75 36
75 70 0 10 -9 29 -21 44 -27 34 -71 35 -104 1z"/>
<path d="M529 4552 c-48 -40 -17 -122 47 -122 35 0 74 37 74 70 0 10 -9 29
-21 44 -25 31 -66 35 -100 8z"/>
<path d="M1009 4552 c-28 -23 -30 -73 -4 -102 25 -28 76 -26 103 3 28 29 28
57 1 91 -25 31 -66 35 -100 8z"/>
<path d="M1490 4550 c-26 -26 -26 -81 -2 -103 44 -40 122 -7 122 51 0 60 -78
94 -120 52z"/>
<path d="M1970 4550 c-28 -28 -27 -84 2 -104 50 -35 118 -5 118 52 0 60 -78
94 -120 52z"/>
<path d="M2450 4550 c-11 -11 -20 -33 -20 -50 0 -17 9 -39 20 -50 11 -11 33
-20 50 -20 17 0 39 9 50 20 11 11 20 33 20 50 0 17 -9 39 -20 50 -11 11 -33
20 -50 20 -17 0 -39 -9 -50 -20z"/>
<path d="M2930 4550 c-11 -11 -20 -33 -20 -50 0 -17 9 -39 20 -50 11 -11 33
-20 50 -20 17 0 39 9 50 20 11 11 20 33 20 50 0 17 -9 39 -20 50 -11 11 -33
20 -50 20 -17 0 -39 -9 -50 -20z"/>
<path d="M3412 4547 c-44 -46 -14 -117 48 -117 17 0 39 9 50 20 11 11 20 33
20 50 0 63 -75 93 -118 47z"/>
<path d="M3892 4547 c-44 -47 -13 -117 52 -117 42 0 66 26 66 73 0 63 -74 91
-118 44z"/>
<path d="M4371 4544 c-27 -35 -27 -65 2 -92 29 -27 78 -29 100 -4 25 28 22 87
-5 106 -34 24 -73 20 -97 -10z"/>
<path d="M4851 4544 c-12 -15 -21 -34 -21 -44 0 -10 9 -29 21 -44 42 -53 122
-23 122 46 0 64 -83 92 -122 42z"/>
<path d="M5331 4544 c-12 -15 -21 -34 -21 -44 0 -34 39 -70 75 -70 43 0 79 41
70 80 -14 60 -88 80 -124 34z"/>
<path d="M5815 4545 c-30 -30 -31 -54 -4 -89 15 -19 30 -26 54 -26 36 0 75 36
75 70 0 10 -9 29 -21 44 -27 34 -71 35 -104 1z"/>
<path d="M6302 4553 c-52 -44 -24 -123 43 -123 36 0 75 36 75 70 0 10 -9 29
-21 44 -24 31 -67 35 -97 9z"/>
<path d="M6782 4554 c-28 -20 -31 -83 -4 -107 26 -24 77 -21 102 5 58 63 -27
152 -98 102z"/>
<path d="M7262 4554 c-28 -20 -31 -83 -4 -107 26 -24 77 -21 102 5 58 63 -26
152 -98 102z"/>
<path d="M7740 4550 c-43 -43 -11 -120 50 -120 63 0 93 75 47 118 -29 27 -71
28 -97 2z"/>
<path d="M8220 4550 c-43 -43 -11 -120 50 -120 38 0 70 32 70 70 0 38 -32 70
-70 70 -17 0 -39 -9 -50 -20z"/>
<path d="M8700 4550 c-43 -43 -11 -120 50 -120 38 0 70 32 70 70 0 38 -32 70
-70 70 -17 0 -39 -9 -50 -20z"/>
<path d="M9172 4540 c-15 -24 -15 -55 -2 -81 19 -35 30 -20 30 41 0 63 -7 73
-28 40z"/>
<path d="M289 4312 c-28 -23 -30 -73 -4 -102 27 -30 78 -27 104 6 27 35 26 59
-4 89 -29 30 -64 32 -96 7z"/>
<path d="M769 4312 c-48 -40 -17 -122 47 -122 35 0 74 37 74 70 0 10 -9 29
-21 44 -25 31 -66 35 -100 8z"/>
<path d="M1252 4314 c-28 -20 -31 -83 -4 -107 26 -24 77 -21 102 5 58 63 -26
152 -98 102z"/>
<path d="M1732 4314 c-28 -20 -31 -83 -4 -107 25 -23 78 -21 102 3 61 61 -27
154 -98 104z"/>
<path d="M2210 4310 c-26 -26 -26 -81 -2 -103 44 -40 122 -7 122 51 0 60 -78
94 -120 52z"/>
<path d="M2690 4310 c-45 -45 -11 -120 54 -120 25 0 39 7 50 22 36 51 5 118
-54 118 -17 0 -39 -9 -50 -20z"/>
<path d="M3172 4310 c-28 -26 -29 -73 -2 -100 28 -28 84 -27 104 2 52 74 -37
158 -102 98z"/>
<path d="M3652 4307 c-45 -48 -14 -117 51 -117 42 0 67 26 67 68 0 65 -74 96
-118 49z"/>
<path d="M4132 4307 c-44 -47 -13 -117 52 -117 41 0 66 26 66 68 0 65 -74 96
-118 49z"/>
<path d="M4611 4304 c-27 -34 -27 -64 -1 -92 45 -48 123 -16 123 50 0 64 -83
92 -122 42z"/>
<path d="M5095 4305 c-30 -30 -31 -54 -4 -89 29 -36 80 -36 109 1 55 70 -42
151 -105 88z"/>
<path d="M5571 4304 c-12 -15 -21 -34 -21 -44 0 -34 39 -70 75 -70 24 0 39 7
54 26 27 35 26 59 -4 89 -33 34 -77 33 -104 -1z"/>
<path d="M6062 4313 c-32 -27 -37 -64 -12 -96 29 -37 80 -37 109 -1 27 35 26
59 -4 89 -28 29 -65 32 -93 8z"/>
<path d="M6539 4312 c-28 -23 -30 -73 -4 -102 25 -27 78 -27 105 2 26 28 26
58 -1 92 -25 31 -66 35 -100 8z"/>
<path d="M7020 4310 c-26 -26 -26 -81 -2 -103 44 -40 122 -7 122 51 0 60 -78
94 -120 52z"/>
<path d="M7500 4310 c-26 -26 -26 -81 -2 -103 44 -40 122 -7 122 51 0 60 -78
94 -120 52z"/>
<path d="M7980 4310 c-43 -43 -11 -120 50 -120 38 0 70 32 70 70 0 38 -32 70
-70 70 -17 0 -39 -9 -50 -20z"/>
<path d="M8460 4310 c-24 -24 -26 -67 -4 -98 20 -29 76 -30 104 -2 43 43 11
120 -50 120 -17 0 -39 -9 -50 -20z"/>
<path d="M8940 4310 c-45 -45 -11 -120 54 -120 25 0 39 7 50 22 36 51 5 118
-54 118 -17 0 -39 -9 -50 -20z"/>
<path d="M52 4073 c-32 -27 -37 -64 -12 -96 29 -37 80 -37 109 -1 27 35 26 59
-4 89 -28 29 -65 32 -93 8z"/>
<path d="M529 4072 c-28 -23 -30 -73 -4 -102 27 -30 78 -27 104 6 27 35 26 59
-4 89 -29 30 -64 32 -96 7z"/>
<path d="M1011 4072 c-28 -22 -31 -75 -6 -102 39 -43 125 -13 125 44 0 61 -72
97 -119 58z"/>
<path d="M1490 4070 c-26 -26 -26 -81 -2 -103 42 -38 122 -7 122 47 0 63 -77
99 -120 56z"/>
<path d="M1970 4070 c-26 -26 -26 -81 -2 -103 44 -40 122 -7 122 51 0 60 -78
94 -120 52z"/>
<path d="M2450 4070 c-11 -11 -20 -33 -20 -50 0 -17 9 -39 20 -50 43 -43 120
-11 120 50 0 60 -78 92 -120 50z"/>
<path d="M2932 4067 c-45 -48 -14 -117 52 -117 40 0 66 28 66 72 0 61 -76 90
-118 45z"/>
<path d="M3412 4067 c-45 -48 -14 -117 51 -117 42 0 67 26 67 68 0 65 -74 96
-118 49z"/>
<path d="M3892 4067 c-45 -48 -14 -117 51 -117 42 0 67 26 67 68 0 65 -74 96
-118 49z"/>
<path d="M4371 4064 c-41 -53 -13 -114 52 -114 43 0 70 29 69 72 -2 65 -82 92
-121 42z"/>
<path d="M4855 4065 c-30 -30 -31 -54 -4 -89 42 -53 122 -23 122 46 0 62 -73
89 -118 43z"/>
<path d="M5335 4065 c-30 -30 -31 -54 -4 -89 42 -53 122 -23 122 46 0 62 -73
89 -118 43z"/>
<path d="M5815 4065 c-30 -30 -31 -54 -4 -89 15 -19 30 -26 54 -26 37 0 75 37
75 72 0 27 -45 68 -75 68 -14 0 -37 -11 -50 -25z"/>
<path d="M6302 4073 c-32 -27 -37 -64 -12 -96 29 -37 80 -37 109 -1 27 35 26
59 -4 89 -28 29 -65 32 -93 8z"/>
<path d="M6779 4072 c-49 -40 -17 -122 48 -122 65 0 93 61 52 114 -25 31 -66
35 -100 8z"/>
<path d="M7260 4070 c-26 -26 -26 -81 -2 -103 44 -40 122 -7 122 51 0 60 -78
94 -120 52z"/>
<path d="M7740 4070 c-26 -26 -26 -81 -2 -103 44 -40 122 -7 122 51 0 60 -78
94 -120 52z"/>
<path d="M8220 4070 c-43 -43 -11 -120 50 -120 63 0 93 75 47 118 -29 27 -71
28 -97 2z"/>
<path d="M8702 4070 c-46 -43 -15 -120 48 -120 63 0 94 77 48 120 -12 11 -34
20 -48 20 -14 0 -36 -9 -48 -20z"/>
<path d="M9178 4063 c-22 -24 -23 -62 -4 -89 21 -28 27 -14 24 51 -3 55 -4 57
-20 38z"/>
<path d="M292 3833 c-51 -43 -24 -123 41 -123 38 0 50 7 66 37 17 33 14 51
-14 78 -28 29 -65 32 -93 8z"/>
<path d="M769 3832 c-49 -40 -17 -122 48 -122 67 0 96 68 48 115 -29 30 -64
32 -96 7z"/>
<path d="M1252 3834 c-28 -20 -31 -83 -4 -107 42 -38 122 -7 122 47 0 60 -68
95 -118 60z"/>
<path d="M1730 3830 c-26 -26 -26 -81 -2 -103 44 -40 122 -7 122 51 0 60 -78
94 -120 52z"/>
<path d="M2210 3830 c-26 -26 -26 -81 -2 -103 28 -25 87 -22 106 5 50 71 -43
159 -104 98z"/>
<path d="M2692 3827 c-45 -48 -14 -117 52 -117 40 0 66 28 66 72 0 61 -76 90
-118 45z"/>
<path d="M3172 3827 c-45 -48 -17 -117 47 -117 46 0 71 24 71 68 0 65 -74 96
-118 49z"/>
<path d="M3652 3827 c-45 -48 -14 -117 51 -117 42 0 67 26 67 68 0 65 -74 96
-118 49z"/>
<path d="M4135 3825 c-48 -47 -19 -115 48 -115 43 0 67 26 67 73 0 64 -69 89
-115 42z"/>
<path d="M4615 3825 c-47 -46 -17 -115 49 -115 41 0 69 29 69 72 0 62 -73 89
-118 43z"/>
<path d="M5095 3825 c-28 -27 -31 -45 -14 -78 16 -30 28 -37 65 -37 62 0 92
83 45 122 -32 25 -67 23 -96 -7z"/>
<path d="M5575 3825 c-28 -27 -31 -45 -14 -78 16 -30 28 -37 66 -37 35 0 73
37 73 72 0 27 -45 68 -75 68 -14 0 -37 -11 -50 -25z"/>
<path d="M6062 3833 c-51 -43 -24 -123 41 -123 38 0 50 7 66 37 17 33 14 51
-14 78 -28 29 -65 32 -93 8z"/>
<path d="M6539 3832 c-48 -40 -17 -122 47 -122 66 0 96 69 49 115 -29 30 -64
32 -96 7z"/>
<path d="M7020 3830 c-26 -26 -26 -81 -2 -103 25 -23 78 -21 102 3 27 27 25
66 -5 95 -29 30 -68 32 -95 5z"/>
<path d="M7500 3830 c-26 -26 -26 -81 -2 -103 44 -40 122 -7 122 51 0 60 -78
94 -120 52z"/>
<path d="M7980 3830 c-26 -26 -26 -81 -2 -103 28 -25 87 -22 106 5 50 71 -43
159 -104 98z"/>
<path d="M8460 3830 c-43 -43 -14 -120 46 -120 67 0 99 73 51 118 -29 27 -71
28 -97 2z"/>
<path d="M8942 3827 c-46 -48 -17 -117 48 -117 29 0 43 6 54 22 53 75 -41 161
-102 95z"/>
<path d="M52 3593 c-51 -43 -24 -123 41 -123 38 0 50 7 66 37 17 33 14 51 -14
78 -28 29 -65 32 -93 8z"/>
<path d="M529 3592 c-15 -13 -22 -30 -22 -51 0 -67 77 -98 123 -49 27 29 25
64 -5 93 -29 30 -64 32 -96 7z"/>
<path d="M1009 3592 c-15 -13 -22 -30 -22 -51 0 -66 76 -98 123 -51 27 27 25
66 -5 95 -29 30 -64 32 -96 7z"/>
<path d="M1490 3590 c-26 -26 -26 -81 -2 -103 25 -23 78 -21 102 3 27 27 25
66 -5 95 -29 30 -68 32 -95 5z"/>
<path d="M1970 3590 c-26 -26 -26 -81 0 -105 11 -10 34 -18 52 -17 65 2 92 82
42 121 -34 26 -68 27 -94 1z"/>
<path d="M2450 3590 c-26 -26 -26 -81 -2 -103 28 -25 87 -22 106 5 50 71 -43
159 -104 98z"/>
<path d="M2932 3587 c-45 -48 -17 -117 47 -117 46 0 71 24 71 68 0 65 -74 96
-118 49z"/>
<path d="M3412 3587 c-51 -54 -7 -128 68 -117 28 4 50 33 50 67 0 66 -74 97
-118 50z"/>
<path d="M3895 3585 c-48 -47 -19 -115 48 -115 42 0 67 26 67 68 0 66 -69 94
-115 47z"/>
<path d="M4375 3585 c-53 -53 -12 -126 65 -115 49 6 68 82 30 120 -27 27 -66
25 -95 -5z"/>
<path d="M4855 3585 c-47 -46 -17 -115 49 -115 41 0 69 29 69 72 0 62 -73 89
-118 43z"/>
<path d="M5335 3585 c-14 -13 -25 -31 -25 -39 0 -30 23 -65 49 -74 76 -27 134
77 68 123 -31 22 -65 18 -92 -10z"/>
<path d="M5815 3585 c-29 -28 -31 -51 -9 -83 49 -71 155 -19 125 61 -19 51
-77 62 -116 22z"/>
<path d="M6302 3593 c-52 -44 -24 -123 43 -123 67 0 97 69 50 115 -28 29 -65
32 -93 8z"/>
<path d="M6780 3590 c-25 -25 -26 -81 -2 -103 45 -41 122 -10 122 48 0 33 -42
75 -75 75 -14 0 -34 -9 -45 -20z"/>
<path d="M7260 3590 c-26 -26 -26 -81 -2 -103 25 -23 78 -21 102 3 27 27 25
66 -5 95 -29 30 -68 32 -95 5z"/>
<path d="M7740 3590 c-26 -26 -26 -81 -2 -103 44 -40 122 -7 122 51 0 60 -78
94 -120 52z"/>
<path d="M8220 3590 c-26 -26 -26 -81 -2 -103 28 -25 87 -22 106 5 24 34 20
73 -10 97 -34 26 -68 27 -94 1z"/>
<path d="M8702 3587 c-46 -48 -17 -117 48 -117 29 0 43 6 54 22 23 32 20 71
-7 96 -30 28 -68 28 -95 -1z"/>
<path d="M9177 3582 c-23 -25 -21 -65 3 -93 l19 -24 1 68 c0 37 -2 67 -3 67
-2 0 -11 -8 -20 -18z"/>
<path d="M293 3355 c-66 -47 -8 -150 70 -123 51 18 62 74 22 113 -27 28 -61
32 -92 10z"/>
<path d="M782 3363 c-19 -8 -43 -60 -35 -80 19 -54 84 -72 123 -33 53 53 -16
142 -88 113z"/>
<path d="M1257 3358 c-45 -35 -37 -101 16 -126 22 -11 31 -10 55 2 49 25 56
73 17 111 -26 27 -62 32 -88 13z"/>
<path d="M1730 3350 c-26 -26 -26 -81 -2 -103 28 -25 87 -22 106 5 24 34 20
73 -10 97 -34 26 -68 27 -94 1z"/>
<path d="M2212 3350 c-28 -26 -29 -80 -4 -103 28 -25 87 -22 106 5 24 34 20
73 -10 97 -34 27 -64 27 -92 1z"/>
<path d="M2696 3349 c-50 -39 -22 -122 42 -122 66 0 98 78 50 123 -28 26 -58
26 -92 -1z"/>
<path d="M3176 3349 c-52 -41 -24 -119 43 -119 46 0 71 24 71 68 0 64 -62 92
-114 51z"/>
<path d="M3656 3349 c-50 -39 -22 -122 42 -122 43 0 72 28 72 70 0 65 -61 93
-114 52z"/>
<path d="M4135 3345 c-48 -47 -19 -115 48 -115 42 0 67 26 67 68 0 66 -69 94
-115 47z"/>
<path d="M4615 3345 c-48 -47 -19 -115 48 -115 65 0 93 74 47 120 -27 27 -66
25 -95 -5z"/>
<path d="M5095 3345 c-14 -13 -25 -31 -25 -39 0 -30 23 -65 49 -74 76 -27 134
77 68 123 -31 22 -65 18 -92 -10z"/>
<path d="M5575 3345 c-28 -27 -31 -45 -14 -78 16 -30 28 -37 66 -37 41 0 77
42 68 80 -14 58 -78 78 -120 35z"/>
<path d="M6055 3345 c-28 -27 -30 -42 -14 -79 32 -69 139 -38 139 40 0 24 -47
64 -75 64 -14 0 -37 -11 -50 -25z"/>
<path d="M6540 3350 c-46 -46 -18 -120 47 -120 67 0 96 68 48 115 -29 30 -68
32 -95 5z"/>
<path d="M7020 3350 c-26 -26 -26 -81 -2 -103 25 -23 78 -21 102 3 27 27 25
66 -5 95 -29 30 -68 32 -95 5z"/>
<path d="M7502 3350 c-48 -45 -16 -123 50 -123 64 0 92 83 42 122 -34 27 -64
27 -92 1z"/>
<path d="M7982 3350 c-28 -26 -29 -80 -4 -103 28 -25 87 -22 106 5 24 34 20
73 -10 97 -34 27 -64 27 -92 1z"/>
<path d="M8475 3358 c-28 -16 -35 -28 -35 -64 0 -39 30 -67 72 -67 64 0 92 83
42 122 -30 24 -50 26 -79 9z"/>
<path d="M8942 3347 c-45 -48 -17 -117 47 -117 70 0 99 77 45 119 -35 27 -65
27 -92 -2z"/>
<path d="M57 3119 c-10 -6 -23 -22 -28 -37 -32 -83 93 -136 130 -55 16 36 14
51 -14 78 -25 26 -58 31 -88 14z"/>
<path d="M529 3112 c-15 -13 -22 -30 -22 -51 0 -66 76 -98 123 -51 27 27 25
66 -5 95 -29 30 -64 32 -96 7z"/>
<path d="M1017 3118 c-65 -50 -12 -153 64 -126 53 18 65 73 24 113 -26 27 -62
32 -88 13z"/>
<path d="M1490 3110 c-26 -26 -26 -81 0 -105 29 -26 79 -24 102 4 25 32 23 67
-7 96 -29 30 -68 32 -95 5z"/>
<path d="M1970 3110 c-26 -26 -26 -81 0 -105 11 -10 34 -18 52 -17 65 2 92 82
42 121 -34 26 -68 27 -94 1z"/>
<path d="M2456 3109 c-53 -42 -23 -122 46 -122 64 0 92 83 42 122 -15 12 -34
21 -44 21 -10 0 -29 -9 -44 -21z"/>
<path d="M2936 3109 c-50 -39 -23 -119 42 -121 69 -2 100 79 46 121 -15 12
-34 21 -44 21 -10 0 -29 -9 -44 -21z"/>
<path d="M3415 3105 c-46 -45 -20 -115 43 -117 43 -1 72 26 72 68 0 66 -69 96
-115 49z"/>
<path d="M3895 3105 c-46 -45 -19 -118 43 -118 43 0 72 28 72 69 0 66 -69 96
-115 49z"/>
<path d="M4375 3105 c-41 -40 -29 -95 24 -113 20 -7 35 -7 52 2 34 17 49 52
37 87 -18 53 -73 65 -113 24z"/>
<path d="M4855 3105 c-39 -38 -32 -86 16 -110 49 -26 102 9 102 67 0 62 -73
89 -118 43z"/>
<path d="M5335 3105 c-28 -27 -30 -42 -14 -79 24 -52 107 -50 129 3 31 75 -58
134 -115 76z"/>
<path d="M5827 3119 c-47 -28 -40 -109 11 -127 33 -11 65 -1 86 30 22 32 20
55 -9 83 -25 26 -58 31 -88 14z"/>
<path d="M6303 3115 c-70 -49 0 -160 76 -120 48 24 55 72 16 110 -27 28 -61
32 -92 10z"/>
<path d="M6787 3118 c-65 -50 -12 -153 64 -126 53 18 65 73 24 113 -26 27 -62
32 -88 13z"/>
<path d="M7262 3110 c-48 -45 -16 -123 50 -123 62 0 89 73 43 118 -29 30 -64
32 -93 5z"/>
<path d="M7742 3110 c-49 -45 -16 -124 50 -122 65 2 92 82 42 121 -34 27 -64
27 -92 1z"/>
<path d="M8226 3109 c-54 -42 -23 -123 46 -121 65 2 92 82 42 121 -15 12 -34
21 -44 21 -10 0 -29 -9 -44 -21z"/>
<path d="M8706 3109 c-50 -39 -22 -122 42 -122 69 0 99 80 46 122 -15 12 -34
21 -44 21 -10 0 -29 -9 -44 -21z"/>
<path d="M9177 3102 c-23 -25 -21 -65 3 -93 l19 -24 1 68 c0 37 -2 67 -3 67
-2 0 -11 -8 -20 -18z"/>
<path d="M297 2879 c-48 -28 -40 -107 13 -129 58 -24 120 44 90 99 -20 38 -66
51 -103 30z"/>
<path d="M770 2870 c-47 -47 -15 -123 51 -123 63 0 90 72 44 118 -29 30 -68
32 -95 5z"/>
<path d="M1252 2870 c-32 -30 -30 -82 5 -110 70 -55 151 42 88 105 -29 30 -64
32 -93 5z"/>
<path d="M1732 2870 c-48 -45 -16 -123 50 -123 62 0 89 73 43 118 -29 30 -64
32 -93 5z"/>
<path d="M2216 2869 c-53 -42 -23 -122 46 -122 64 0 92 83 42 122 -15 12 -34
21 -44 21 -10 0 -29 -9 -44 -21z"/>
<path d="M2696 2869 c-52 -41 -23 -122 44 -122 67 0 96 81 44 122 -15 12 -34
21 -44 21 -10 0 -29 -9 -44 -21z"/>
<path d="M3176 2869 c-50 -39 -22 -122 42 -122 42 0 72 28 72 67 0 37 -7 49
-37 65 -31 16 -47 14 -77 -10z"/>
<path d="M3655 2865 c-30 -29 -32 -64 -7 -96 39 -47 122 -17 122 45 0 37 -7
49 -37 65 -33 17 -51 14 -78 -14z"/>
<path d="M4135 2865 c-30 -29 -32 -64 -7 -96 39 -47 122 -17 122 45 0 37 -7
49 -37 65 -33 17 -51 14 -78 -14z"/>
<path d="M4615 2865 c-39 -38 -32 -86 17 -111 24 -12 33 -13 56 -2 15 7 33 25
40 40 11 23 10 32 -2 56 -25 49 -73 56 -111 17z"/>
<path d="M5095 2865 c-41 -40 -30 -92 25 -115 25 -10 34 -10 55 4 38 25 49 52
34 87 -22 54 -74 65 -114 24z"/>
<path d="M5575 2865 c-26 -25 -29 -35 -19 -73 16 -58 110 -60 134 -3 31 75
-58 134 -115 76z"/>
<path d="M6067 2879 c-48 -28 -40 -107 13 -129 58 -24 120 44 90 99 -20 38
-66 51 -103 30z"/>
<path d="M6552 2883 c-7 -3 -19 -18 -28 -34 -12 -25 -13 -34 -2 -57 7 -15 25
-33 40 -40 46 -22 98 14 98 69 0 44 -63 80 -108 62z"/>
<path d="M7035 2878 c-28 -16 -35 -28 -35 -64 0 -62 83 -92 122 -45 25 32 23
67 -7 96 -26 27 -49 31 -80 13z"/>
<path d="M7515 2878 c-28 -16 -35 -28 -35 -64 0 -62 83 -92 122 -45 25 32 23
67 -7 96 -26 27 -49 31 -80 13z"/>
<path d="M7986 2869 c-53 -42 -23 -122 46 -122 64 0 92 83 42 122 -15 12 -34
21 -44 21 -10 0 -29 -9 -44 -21z"/>
<path d="M8466 2869 c-52 -41 -23 -122 44 -122 67 0 96 81 44 122 -15 12 -34
21 -44 21 -10 0 -29 -9 -44 -21z"/>
<path d="M8946 2869 c-52 -41 -23 -122 44 -122 67 0 96 81 44 122 -15 12 -34
21 -44 21 -10 0 -29 -9 -44 -21z"/>
<path d="M57 2639 c-48 -28 -40 -107 13 -129 23 -9 34 -9 58 4 49 25 56 72 17
111 -25 26 -58 31 -88 14z"/>
<path d="M547 2643 c-9 -2 -24 -18 -33 -35 -32 -63 31 -127 94 -94 49 25 56
72 17 111 -23 24 -40 28 -78 18z"/>
<path d="M1017 2638 c-41 -32 -38 -94 6 -123 46 -30 107 6 107 63 0 51 -73 90
-113 60z"/>
<path d="M1505 2638 c-28 -16 -35 -28 -35 -64 0 -62 83 -92 122 -45 25 32 23
67 -7 96 -26 27 -49 31 -80 13z"/>
<path d="M1976 2629 c-36 -29 -36 -80 1 -109 70 -55 151 42 88 105 -30 30 -54
31 -89 4z"/>
<path d="M2456 2629 c-52 -41 -23 -122 44 -122 67 0 96 81 44 122 -15 12 -34
21 -44 21 -10 0 -29 -9 -44 -21z"/>
<path d="M2936 2629 c-46 -36 -26 -110 34 -124 39 -9 80 27 80 70 0 36 -36 75
-70 75 -10 0 -29 -9 -44 -21z"/>
<path d="M3416 2629 c-46 -36 -26 -110 34 -124 39 -9 80 27 80 70 0 36 -36 75
-70 75 -10 0 -29 -9 -44 -21z"/>
<path d="M3895 2625 c-43 -42 -23 -106 35 -120 38 -9 80 27 80 68 0 38 -7 50
-37 66 -33 17 -51 14 -78 -14z"/>
<path d="M4375 2625 c-28 -27 -32 -61 -10 -92 46 -66 150 -8 123 68 -9 26 -44
49 -74 49 -8 0 -26 -11 -39 -25z"/>
<path d="M4855 2625 c-40 -39 -29 -97 22 -116 62 -23 119 40 89 99 -25 49 -72
56 -111 17z"/>
<path d="M5335 2625 c-58 -57 1 -146 76 -115 35 15 53 57 40 93 -19 51 -77 62
-116 22z"/>
<path d="M5827 2639 c-28 -16 -40 -58 -27 -90 25 -58 106 -58 130 0 26 65 -43
125 -103 90z"/>
<path d="M6312 2643 c-7 -3 -19 -18 -28 -35 -13 -24 -13 -35 -4 -58 31 -74
140 -51 140 30 0 45 -63 81 -108 63z"/>
<path d="M6793 2638 c-12 -6 -26 -22 -31 -37 -27 -76 77 -134 123 -68 22 31
18 65 -10 92 -26 27 -47 30 -82 13z"/>
<path d="M7275 2638 c-28 -16 -35 -28 -35 -64 0 -62 83 -92 122 -45 25 32 23
67 -7 96 -26 27 -49 31 -80 13z"/>
<path d="M7746 2629 c-36 -29 -36 -80 1 -109 47 -37 113 -2 113 60 0 31 -39
70 -70 70 -10 0 -29 -9 -44 -21z"/>
<path d="M8226 2629 c-36 -29 -36 -80 1 -109 47 -37 113 -2 113 60 0 31 -39
70 -70 70 -10 0 -29 -9 -44 -21z"/>
<path d="M8706 2629 c-52 -41 -23 -122 44 -122 67 0 96 81 44 122 -15 12 -34
21 -44 21 -10 0 -29 -9 -44 -21z"/>
<path d="M9177 2622 c-23 -25 -21 -65 3 -93 l19 -24 1 68 c0 37 -2 67 -3 67
-2 0 -11 -8 -20 -18z"/>
<path d="M302 2403 c-7 -3 -19 -18 -28 -35 -13 -24 -13 -35 -4 -58 31 -74 140
-51 140 30 0 45 -63 81 -108 63z"/>
<path d="M784 2398 c-53 -25 -50 -105 5 -128 75 -31 134 58 76 115 -26 27 -47
30 -81 13z"/>
<path d="M1263 2398 c-12 -6 -26 -22 -31 -37 -27 -76 77 -134 123 -68 22 31
18 65 -10 92 -26 27 -47 30 -82 13z"/>
<path d="M1736 2389 c-19 -15 -26 -30 -26 -54 0 -37 37 -75 72 -75 27 0 68 45
68 75 0 30 -41 75 -68 75 -11 0 -31 -9 -46 -21z"/>
<path d="M2216 2389 c-19 -15 -26 -30 -26 -54 0 -37 37 -75 72 -75 27 0 68 45
68 75 0 30 -41 75 -68 75 -11 0 -31 -9 -46 -21z"/>
<path d="M2696 2389 c-31 -24 -36 -77 -8 -102 50 -45 122 -17 122 48 0 36 -36
75 -70 75 -10 0 -29 -9 -44 -21z"/>
<path d="M3175 2385 c-14 -13 -25 -36 -25 -50 0 -30 41 -75 68 -75 11 0 31 9
46 21 36 28 36 80 0 108 -35 27 -59 26 -89 -4z"/>
<path d="M3655 2385 c-63 -63 18 -160 88 -105 37 29 37 80 1 109 -35 27 -59
26 -89 -4z"/>
<path d="M4135 2385 c-43 -42 -23 -106 35 -120 38 -9 80 27 80 68 0 38 -7 50
-37 66 -33 17 -51 14 -78 -14z"/>
<path d="M4615 2385 c-58 -57 1 -146 76 -115 53 22 55 105 3 129 -37 16 -52
14 -79 -14z"/>
<path d="M5095 2385 c-40 -39 -29 -97 22 -116 62 -23 119 40 89 99 -25 49 -72
56 -111 17z"/>
<path d="M5583 2395 c-68 -48 -9 -157 68 -125 75 32 47 139 -36 140 -6 0 -20
-7 -32 -15z"/>
<path d="M6067 2399 c-28 -16 -40 -58 -27 -90 36 -87 164 -33 130 55 -15 41
-64 58 -103 35z"/>
<path d="M6553 2398 c-49 -24 -45 -106 6 -127 75 -32 134 57 76 114 -26 27
-47 30 -82 13z"/>
<path d="M7033 2398 c-12 -6 -26 -22 -31 -37 -27 -76 77 -134 123 -68 22 31
18 65 -10 92 -26 27 -47 30 -82 13z"/>
<path d="M7506 2389 c-36 -29 -36 -80 1 -109 70 -55 151 42 88 105 -30 30 -54
31 -89 4z"/>
<path d="M7986 2389 c-19 -15 -26 -30 -26 -54 0 -37 37 -75 72 -75 29 0 68 45
68 79 0 32 -38 71 -70 71 -10 0 -29 -9 -44 -21z"/>
<path d="M8466 2389 c-36 -29 -36 -80 1 -109 47 -37 113 -4 113 56 0 35 -37
74 -70 74 -10 0 -29 -9 -44 -21z"/>
<path d="M8946 2389 c-19 -15 -26 -30 -26 -54 0 -36 36 -75 70 -75 34 0 70 39
70 75 0 36 -36 75 -70 75 -10 0 -29 -9 -44 -21z"/>
<path d="M59 2155 c-75 -41 -16 -156 64 -126 44 17 58 91 23 120 -21 18 -61
21 -87 6z"/>
<path d="M544 2158 c-53 -25 -50 -105 5 -128 75 -31 134 58 76 115 -26 27 -47
30 -81 13z"/>
<path d="M1023 2158 c-49 -24 -45 -106 6 -127 75 -32 134 57 76 114 -26 27
-47 30 -82 13z"/>
<path d="M1496 2149 c-19 -15 -26 -30 -26 -54 0 -37 37 -75 72 -75 27 0 68 45
68 75 0 30 -41 75 -68 75 -11 0 -31 -9 -46 -21z"/>
<path d="M1976 2149 c-36 -29 -36 -80 1 -109 70 -55 151 42 88 105 -30 30 -54
31 -89 4z"/>
<path d="M2456 2149 c-19 -15 -26 -30 -26 -54 0 -36 36 -75 70 -75 34 0 70 39
70 75 0 36 -36 75 -70 75 -10 0 -29 -9 -44 -21z"/>
<path d="M2935 2145 c-14 -13 -25 -36 -25 -50 0 -30 41 -75 68 -75 11 0 31 9
46 21 36 28 36 80 0 108 -35 27 -59 26 -89 -4z"/>
<path d="M3415 2145 c-14 -13 -25 -36 -25 -50 0 -30 41 -75 68 -75 11 0 31 9
46 21 36 28 36 80 0 108 -35 27 -59 26 -89 -4z"/>
<path d="M3895 2145 c-14 -13 -25 -36 -25 -50 0 -30 41 -75 68 -75 35 0 72 38
72 73 0 38 -7 50 -37 66 -33 17 -51 14 -78 -14z"/>
<path d="M4375 2145 c-43 -42 -23 -106 35 -120 38 -9 80 27 80 68 0 38 -7 50
-37 66 -33 17 -51 14 -78 -14z"/>
<path d="M4870 2157 c-80 -40 -22 -161 61 -127 53 22 55 105 3 129 -31 14 -33
14 -64 -2z"/>
<path d="M5343 2155 c-68 -48 -10 -157 68 -125 56 24 59 103 3 129 -33 15 -45
14 -71 -4z"/>
<path d="M5831 2157 c-79 -40 -21 -160 60 -127 57 24 59 109 4 130 -33 12 -35
12 -64 -3z"/>
<path d="M6314 2159 c-53 -27 -50 -106 5 -129 69 -28 131 52 84 108 -22 26
-61 35 -89 21z"/>
<path d="M6795 2158 c-28 -16 -35 -28 -35 -65 0 -41 42 -77 80 -68 58 14 78
78 35 120 -26 27 -49 31 -80 13z"/>
<path d="M7266 2149 c-19 -15 -26 -30 -26 -54 0 -37 37 -75 72 -75 27 0 68 45
68 75 0 30 -41 75 -68 75 -11 0 -31 -9 -46 -21z"/>
<path d="M7746 2149 c-19 -15 -26 -30 -26 -54 0 -37 37 -75 72 -75 27 0 68 45
68 75 0 30 -41 75 -68 75 -11 0 -31 -9 -46 -21z"/>
<path d="M8226 2149 c-19 -15 -26 -30 -26 -54 0 -37 37 -75 72 -75 29 0 68 45
68 79 0 32 -38 71 -70 71 -10 0 -29 -9 -44 -21z"/>
<path d="M8706 2149 c-19 -15 -26 -30 -26 -54 0 -36 36 -75 70 -75 34 0 70 39
70 75 0 36 -36 75 -70 75 -10 0 -29 -9 -44 -21z"/>
<path d="M9176 2138 c-21 -30 -20 -61 4 -89 l19 -24 1 68 c0 37 -2 67 -4 67
-3 0 -12 -10 -20 -22z"/>
<path d="M304 1919 c-32 -16 -48 -56 -34 -89 11 -27 46 -50 76 -50 23 0 64 47
64 73 0 51 -61 88 -106 66z"/>
<path d="M783 1918 c-30 -14 -46 -61 -31 -93 31 -69 138 -43 138 33 0 47 -63
82 -107 60z"/>
<path d="M1257 1910 c-19 -15 -27 -30 -27 -53 0 -38 7 -50 37 -66 33 -17 51
-14 78 14 63 63 -18 160 -88 105z"/>
<path d="M1736 1909 c-19 -15 -26 -30 -26 -54 0 -37 37 -75 72 -75 27 0 68 45
68 75 0 30 -41 75 -68 75 -11 0 -31 -9 -46 -21z"/>
<path d="M2216 1909 c-19 -15 -26 -30 -26 -54 0 -37 37 -75 72 -75 27 0 68 45
68 75 0 30 -41 75 -68 75 -11 0 -31 -9 -46 -21z"/>
<path d="M2696 1909 c-36 -28 -36 -80 0 -108 15 -12 34 -21 44 -21 34 0 70 39
70 75 0 36 -36 75 -70 75 -10 0 -29 -9 -44 -21z"/>
<path d="M3175 1905 c-14 -13 -25 -36 -25 -50 0 -30 41 -75 68 -75 11 0 31 9
46 21 36 28 36 80 0 108 -35 27 -59 26 -89 -4z"/>
<path d="M3670 1917 c-56 -28 -48 -110 13 -131 67 -24 118 78 61 123 -31 24
-40 25 -74 8z"/>
<path d="M4135 1905 c-14 -13 -25 -36 -25 -50 0 -29 40 -75 65 -75 20 0 57 19
67 34 18 26 8 75 -18 95 -35 27 -59 26 -89 -4z"/>
<path d="M4630 1917 c-80 -40 -24 -162 59 -127 55 22 58 104 5 129 -31 14 -33
14 -64 -2z"/>
<path d="M5112 1920 c-77 -31 -34 -153 48 -135 65 14 74 106 14 134 -29 13
-31 13 -62 1z"/>
<path d="M5590 1917 c-51 -26 -47 -107 7 -128 81 -31 140 86 62 126 -34 18
-37 18 -69 2z"/>
<path d="M6073 1918 c-31 -15 -46 -58 -34 -91 10 -25 45 -47 76 -47 23 0 55
34 61 65 10 55 -51 99 -103 73z"/>
<path d="M6554 1919 c-68 -34 -36 -139 42 -139 23 0 64 47 64 73 0 51 -61 88
-106 66z"/>
<path d="M7026 1909 c-26 -20 -36 -69 -18 -95 10 -15 47 -34 67 -34 25 0 65
46 65 75 0 30 -41 75 -68 75 -11 0 -31 -9 -46 -21z"/>
<path d="M7507 1910 c-37 -29 -37 -80 -1 -109 35 -27 59 -26 89 4 63 63 -18
160 -88 105z"/>
<path d="M7986 1909 c-19 -15 -26 -30 -26 -54 0 -37 37 -75 72 -75 29 0 68 45
68 79 0 32 -38 71 -70 71 -10 0 -29 -9 -44 -21z"/>
<path d="M8466 1909 c-19 -15 -26 -30 -26 -54 0 -36 36 -75 70 -75 34 0 70 39
70 75 0 36 -36 75 -70 75 -10 0 -29 -9 -44 -21z"/>
<path d="M8946 1909 c-19 -15 -26 -30 -26 -54 0 -36 36 -75 70 -75 34 0 70 39
70 75 0 36 -36 75 -70 75 -10 0 -29 -9 -44 -21z"/>
<path d="M63 1678 c-81 -39 -19 -167 63 -129 54 24 56 99 4 126 -33 17 -37 17
-67 3z"/>
<path d="M543 1678 c-35 -17 -48 -60 -29 -96 35 -68 136 -41 136 36 0 47 -63
82 -107 60z"/>
<path d="M1022 1674 c-62 -43 -32 -134 44 -134 23 0 64 47 64 73 0 55 -65 92
-108 61z"/>
<path d="M1497 1670 c-19 -15 -27 -30 -27 -53 0 -38 7 -50 37 -66 33 -17 51
-14 78 14 63 63 -18 160 -88 105z"/>
<path d="M1976 1669 c-26 -20 -36 -69 -18 -95 10 -15 47 -34 67 -34 25 0 65
46 65 75 0 30 -41 75 -68 75 -11 0 -31 -9 -46 -21z"/>
<path d="M2457 1670 c-37 -29 -37 -80 -1 -109 15 -12 34 -21 44 -21 33 0 70
39 70 74 0 60 -66 93 -113 56z"/>
<path d="M2936 1669 c-36 -28 -36 -80 0 -108 15 -12 34 -21 44 -21 34 0 70 39
70 75 0 36 -36 75 -70 75 -10 0 -29 -9 -44 -21z"/>
<path d="M3430 1677 c-56 -28 -48 -110 13 -131 67 -24 118 78 61 123 -31 24
-40 25 -74 8z"/>
<path d="M3910 1677 c-56 -28 -48 -110 13 -131 67 -24 118 78 61 123 -31 24
-40 25 -74 8z"/>
<path d="M4390 1677 c-80 -40 -24 -162 59 -127 53 22 59 89 9 124 -27 19 -35
20 -68 3z"/>
<path d="M4870 1677 c-35 -18 -48 -61 -29 -95 30 -55 102 -52 128 6 16 33 -1
75 -35 91 -31 14 -33 14 -64 -2z"/>
<path d="M5350 1677 c-52 -26 -49 -104 4 -128 36 -17 73 -3 92 32 19 38 6 80
-32 98 -31 14 -33 14 -64 -2z"/>
<path d="M5833 1678 c-50 -24 -50 -106 1 -129 81 -37 144 86 65 126 -32 17
-36 17 -66 3z"/>
<path d="M6313 1678 c-68 -33 -40 -138 37 -138 28 0 70 44 70 73 0 51 -61 88
-107 65z"/>
<path d="M6792 1674 c-62 -43 -32 -134 44 -134 23 0 64 47 64 73 0 55 -65 92
-108 61z"/>
<path d="M7267 1670 c-37 -29 -37 -80 -1 -109 35 -27 59 -26 89 4 63 63 -18
160 -88 105z"/>
<path d="M7747 1670 c-37 -29 -37 -80 -1 -109 35 -27 59 -26 89 4 63 63 -18
160 -88 105z"/>
<path d="M8226 1669 c-19 -15 -26 -30 -26 -54 0 -36 36 -75 70 -75 34 0 70 39
70 75 0 36 -36 75 -70 75 -10 0 -29 -9 -44 -21z"/>
<path d="M8730 1683 c-55 -20 -68 -87 -24 -122 15 -12 34 -21 44 -21 33 0 70
39 70 74 0 46 -49 84 -90 69z"/>
<path d="M9176 1658 c-22 -31 -20 -71 4 -93 20 -18 20 -17 20 48 0 37 -2 67
-4 67 -3 0 -12 -10 -20 -22z"/>
<path d="M303 1438 c-68 -33 -40 -138 37 -138 28 0 70 44 70 73 0 51 -61 88
-107 65z"/>
<path d="M777 1428 c-37 -33 -40 -75 -7 -108 27 -27 66 -25 95 5 29 28 32 65
8 93 -28 33 -66 37 -96 10z"/>
<path d="M1257 1430 c-19 -15 -27 -30 -27 -53 0 -38 7 -50 37 -66 33 -17 51
-14 78 14 63 63 -18 160 -88 105z"/>
<path d="M1760 1443 c-43 -16 -66 -74 -42 -109 10 -15 47 -34 67 -34 24 0 65
46 65 73 0 44 -51 84 -90 70z"/>
<path d="M2217 1430 c-37 -29 -37 -80 -1 -109 15 -12 34 -21 44 -21 31 0 70
39 70 70 0 62 -66 97 -113 60z"/>
<path d="M2713 1440 c-26 -11 -43 -40 -43 -74 0 -27 41 -66 70 -66 10 0 29 9
44 21 36 28 36 80 0 108 -29 23 -38 24 -71 11z"/>
<path d="M3193 1440 c-26 -11 -43 -40 -43 -74 0 -27 41 -66 70 -66 10 0 29 9
44 21 63 49 4 149 -71 119z"/>
<path d="M3672 1440 c-49 -20 -54 -95 -7 -126 73 -48 147 61 79 115 -29 23
-38 24 -72 11z"/>
<path d="M4152 1440 c-49 -20 -54 -95 -7 -126 73 -48 147 61 79 115 -29 23
-38 24 -72 11z"/>
<path d="M4630 1437 c-52 -26 -49 -104 4 -128 81 -37 138 73 64 125 -27 19
-35 20 -68 3z"/>
<path d="M5110 1437 c-52 -26 -49 -104 4 -128 36 -17 73 -3 92 32 19 38 6 80
-32 98 -31 14 -33 14 -64 -2z"/>
<path d="M5594 1438 c-54 -26 -55 -98 -2 -127 57 -32 123 28 98 88 -6 16 -23
33 -36 40 -29 13 -32 13 -60 -1z"/>
<path d="M6073 1438 c-81 -39 -20 -167 62 -130 55 25 55 105 -1 131 -29 13
-32 13 -61 -1z"/>
<path d="M6552 1434 c-63 -44 -37 -134 39 -134 28 0 69 44 69 73 0 55 -65 92
-108 61z"/>
<path d="M7050 1443 c-43 -16 -66 -74 -42 -109 10 -15 47 -34 67 -34 24 0 65
46 65 73 0 44 -51 84 -90 70z"/>
<path d="M7507 1430 c-19 -15 -27 -30 -27 -53 0 -38 7 -50 37 -66 33 -17 51
-14 78 14 63 63 -18 160 -88 105z"/>
<path d="M8010 1443 c-55 -20 -68 -87 -24 -122 15 -12 34 -21 44 -21 31 0 70
39 70 70 0 47 -50 87 -90 73z"/>
<path d="M8467 1430 c-37 -29 -37 -80 -1 -109 15 -12 34 -21 44 -21 31 0 70
39 70 70 0 62 -66 97 -113 60z"/>
<path d="M8963 1440 c-26 -11 -43 -40 -43 -74 0 -27 41 -66 70 -66 10 0 29 9
44 21 63 49 4 149 -71 119z"/>
<path d="M63 1198 c-81 -39 -20 -167 62 -130 55 25 55 105 -1 131 -29 13 -32
13 -61 -1z"/>
<path d="M550 1197 c-14 -7 -31 -25 -38 -40 -27 -56 36 -115 94 -88 54 24 56
99 4 126 -35 18 -29 18 -60 2z"/>
<path d="M1022 1194 c-74 -52 -17 -162 64 -125 54 24 56 99 4 126 -36 19 -40
19 -68 -1z"/>
<path d="M1520 1203 c-43 -16 -66 -74 -42 -109 10 -15 47 -34 67 -34 24 0 65
46 65 73 0 44 -51 84 -90 70z"/>
<path d="M2000 1203 c-43 -16 -66 -74 -42 -109 10 -15 47 -34 67 -34 24 0 65
46 65 73 0 44 -51 84 -90 70z"/>
<path d="M2480 1203 c-55 -20 -68 -87 -24 -122 15 -12 34 -21 44 -21 31 0 70
39 70 70 0 47 -50 87 -90 73z"/>
<path d="M2953 1200 c-26 -11 -43 -40 -43 -74 0 -27 41 -66 70 -66 10 0 29 9
44 21 63 49 4 149 -71 119z"/>
<path d="M3433 1200 c-49 -20 -56 -90 -11 -123 47 -35 108 -3 108 57 0 50 -50
84 -97 66z"/>
<path d="M3912 1200 c-49 -20 -54 -95 -7 -126 47 -31 105 3 105 60 0 51 -50
84 -98 66z"/>
<path d="M4395 1198 c-50 -27 -59 -75 -20 -113 47 -48 115 -19 115 48 0 52
-53 88 -95 65z"/>
<path d="M4870 1197 c-52 -26 -49 -104 4 -128 81 -37 138 73 64 125 -27 19
-35 20 -68 3z"/>
<path d="M5353 1198 c-12 -6 -27 -24 -34 -40 -35 -84 90 -137 129 -55 19 39 1
82 -40 96 -17 6 -31 11 -32 10 -1 0 -11 -5 -23 -11z"/>
<path d="M5839 1198 c-16 -5 -32 -22 -39 -39 -36 -85 89 -139 128 -56 28 58
-27 116 -89 95z"/>
<path d="M6299 1181 c-25 -25 -30 -37 -25 -59 15 -60 79 -80 121 -37 43 42 23
106 -37 121 -22 5 -34 0 -59 -25z"/>
<path d="M6810 1203 c-74 -27 -62 -143 15 -143 33 0 75 42 75 73 0 44 -51 84
-90 70z"/>
<path d="M7290 1203 c-43 -16 -66 -74 -42 -109 10 -15 47 -34 67 -34 24 0 65
46 65 73 0 44 -51 84 -90 70z"/>
<path d="M7770 1203 c-48 -18 -68 -84 -34 -117 43 -43 116 -19 122 41 5 47
-46 91 -88 76z"/>
<path d="M8250 1203 c-55 -20 -68 -87 -24 -122 15 -12 34 -21 44 -21 31 0 70
39 70 70 0 47 -50 87 -90 73z"/>
<path d="M8723 1200 c-26 -11 -43 -40 -43 -74 0 -27 41 -66 70 -66 10 0 29 9
44 21 63 49 4 149 -71 119z"/>
<path d="M9176 1178 c-22 -31 -20 -71 4 -93 20 -18 20 -17 20 48 0 37 -2 67
-4 67 -3 0 -12 -10 -20 -22z"/>
<path d="M310 957 c-14 -7 -31 -24 -39 -38 -12 -22 -12 -29 0 -54 27 -57 105
-57 131 0 26 57 -37 119 -92 92z"/>
<path d="M793 960 c-12 -5 -30 -21 -39 -35 -16 -24 -16 -29 -1 -60 38 -80 155
-37 133 49 -5 20 -52 59 -68 55 -2 0 -13 -4 -25 -9z"/>
<path d="M1269 957 c-37 -19 -50 -54 -35 -91 24 -58 102 -58 128 -1 26 57 -37
119 -93 92z"/>
<path d="M1760 963 c-74 -27 -60 -143 17 -143 31 0 73 42 73 73 0 44 -51 84
-90 70z"/>
<path d="M2240 963 c-53 -19 -68 -86 -28 -123 63 -58 157 33 101 98 -20 23
-50 33 -73 25z"/>
<path d="M2713 960 c-48 -19 -58 -87 -17 -119 35 -27 65 -27 92 2 54 57 -3
145 -75 117z"/>
<path d="M3193 960 c-49 -20 -56 -90 -11 -123 47 -35 108 -3 108 57 0 50 -50
84 -97 66z"/>
<path d="M3683 962 c-54 -8 -71 -87 -27 -121 53 -41 114 -13 114 52 0 48 -38
77 -87 69z"/>
<path d="M4153 960 c-47 -19 -56 -78 -18 -115 47 -48 115 -19 115 48 0 51 -50
86 -97 67z"/>
<path d="M4628 954 c-73 -39 -24 -150 57 -130 29 7 56 56 48 87 -12 43 -65 65
-105 43z"/>
<path d="M5119 958 c-38 -13 -57 -62 -38 -97 32 -57 111 -49 132 13 17 51 -40
103 -94 84z"/>
<path d="M5599 958 c-38 -13 -57 -62 -38 -97 32 -57 111 -49 132 13 17 51 -40
103 -94 84z"/>
<path d="M6079 958 c-15 -5 -32 -22 -39 -38 -24 -59 37 -118 95 -92 83 38 31
159 -56 130z"/>
<path d="M6560 957 c-57 -29 -55 -111 3 -131 81 -29 134 89 57 129 -35 18 -29
18 -60 2z"/>
<path d="M7050 963 c-74 -27 -62 -143 15 -143 33 0 75 42 75 73 0 44 -51 84
-90 70z"/>
<path d="M7530 962 c-51 -16 -68 -84 -30 -122 26 -26 60 -25 94 1 58 46 7 143
-64 121z"/>
<path d="M8010 963 c-55 -20 -68 -87 -24 -122 15 -12 34 -21 44 -21 31 0 70
39 70 70 0 47 -50 87 -90 73z"/>
<path d="M8490 963 c-53 -19 -67 -83 -27 -121 29 -28 57 -28 91 -1 57 45 4
146 -64 122z"/>
<path d="M8963 960 c-48 -19 -58 -87 -17 -119 35 -27 65 -27 92 2 54 57 -3
145 -75 117z"/>
<path d="M8250 722 c-52 -16 -68 -85 -28 -122 28 -26 58 -26 92 1 58 46 7 143
-64 121z"/>
<path d="M40 693 c-55 -70 42 -151 105 -88 28 27 31 45 14 78 -16 30 -28 37
-66 37 -23 0 -38 -8 -53 -27z"/>
<path d="M520 693 c-55 -70 42 -151 105 -88 28 27 31 45 14 78 -16 30 -28 37
-66 37 -23 0 -38 -8 -53 -27z"/>
<path d="M1008 703 c-25 -29 -29 -53 -13 -82 24 -48 72 -55 110 -16 30 29 32
68 5 95 -25 25 -81 27 -102 3z"/>
<path d="M1487 702 c-39 -43 -7 -122 48 -122 33 0 75 42 75 75 0 56 -86 89
-123 47z"/>
<path d="M1967 702 c-38 -42 -7 -122 47 -122 60 0 95 68 60 118 -20 28 -83 31
-107 4z"/>
<path d="M2447 702 c-40 -44 -5 -122 53 -122 57 0 93 86 52 123 -25 23 -85 22
-105 -1z"/>
<path d="M2926 698 c-35 -49 0 -118 58 -118 56 0 89 86 48 123 -28 25 -87 22
-106 -5z"/>
<path d="M3410 700 c-42 -42 -7 -120 54 -120 56 0 89 86 48 123 -25 23 -78 21
-102 -3z"/>
<path d="M3890 700 c-27 -27 -25 -66 5 -95 29 -30 68 -32 95 -5 26 26 26 81 2
103 -25 23 -78 21 -102 -3z"/>
<path d="M4370 700 c-27 -27 -25 -66 5 -95 53 -53 126 -12 115 65 -6 49 -82
68 -120 30z"/>
<path d="M4850 698 c-27 -29 -25 -64 5 -93 63 -63 160 18 105 88 -28 35 -80
37 -110 5z"/>
<path d="M5336 705 c-59 -59 10 -155 83 -114 62 35 41 121 -31 127 -23 2 -41
-3 -52 -13z"/>
<path d="M5816 704 c-40 -39 -23 -107 30 -120 72 -18 120 68 68 121 -20 20
-78 19 -98 -1z"/>
<path d="M6290 693 c-55 -70 42 -151 105 -88 48 47 19 115 -49 115 -26 0 -40
-7 -56 -27z"/>
<path d="M6777 703 c-41 -46 -10 -123 48 -123 33 0 75 42 75 75 0 55 -86 89
-123 48z"/>
<path d="M7257 702 c-39 -43 -7 -122 48 -122 33 0 75 42 75 75 0 56 -86 89
-123 47z"/>
<path d="M7737 702 c-24 -26 -21 -77 5 -102 63 -58 152 27 102 98 -20 28 -83
31 -107 4z"/>
<path d="M8696 698 c-23 -32 -20 -71 7 -96 30 -28 68 -28 95 1 46 48 17 117
-48 117 -29 0 -43 -6 -54 -22z"/>
<path d="M9176 698 c-22 -31 -20 -71 4 -93 20 -18 20 -17 20 48 0 37 -2 67 -4
67 -3 0 -12 -10 -20 -22z"/>
<path d="M280 453 c-55 -70 42 -151 105 -88 28 27 31 45 14 78 -16 30 -28 37
-66 37 -23 0 -38 -8 -53 -27z"/>
<path d="M765 460 c-40 -44 -7 -120 52 -120 31 0 73 42 73 75 0 57 -86 89
-125 45z"/>
<path d="M1247 462 c-23 -25 -21 -78 3 -102 27 -27 66 -25 95 5 30 29 32 68 5
95 -26 26 -81 26 -103 2z"/>
<path d="M1727 462 c-40 -44 -6 -122 52 -122 34 0 71 39 71 76 0 55 -86 87
-123 46z"/>
<path d="M2207 462 c-38 -42 -7 -122 47 -122 60 0 95 68 60 118 -20 28 -83 31
-107 4z"/>
<path d="M2686 458 c-23 -32 -20 -71 7 -96 30 -28 68 -28 95 1 46 48 17 117
-48 117 -29 0 -43 -6 -54 -22z"/>
<path d="M3166 458 c-35 -50 0 -118 60 -118 55 0 87 86 46 123 -28 25 -87 22
-106 -5z"/>
<path d="M3650 460 c-26 -26 -25 -60 1 -94 41 -52 119 -21 119 47 0 20 -8 41
-18 50 -25 23 -78 21 -102 -3z"/>
<path d="M4130 460 c-27 -27 -25 -66 5 -95 29 -30 68 -32 95 -5 26 26 26 81 2
103 -25 23 -78 21 -102 -3z"/>
<path d="M4610 460 c-27 -27 -25 -66 5 -95 29 -30 64 -32 96 -7 28 23 30 73 4
102 -24 26 -79 26 -105 0z"/>
<path d="M5090 458 c-27 -29 -25 -64 5 -93 45 -46 118 -19 118 43 0 66 -78 98
-123 50z"/>
<path d="M5576 465 c-59 -60 10 -155 83 -114 63 36 42 121 -31 127 -23 2 -41
-3 -52 -13z"/>
<path d="M6050 453 c-55 -70 42 -151 105 -88 28 27 31 45 14 78 -16 30 -28 37
-66 37 -23 0 -38 -8 -53 -27z"/>
<path d="M6535 460 c-41 -45 -9 -120 52 -120 31 0 73 42 73 75 0 57 -86 89
-125 45z"/>
<path d="M7017 462 c-39 -43 -7 -122 48 -122 33 0 75 42 75 75 0 56 -86 89
-123 47z"/>
<path d="M7497 462 c-40 -44 -7 -122 51 -122 60 0 94 78 52 120 -26 26 -81 26
-103 2z"/>
<path d="M7977 462 c-23 -25 -21 -78 3 -102 61 -61 154 27 104 98 -20 28 -83
31 -107 4z"/>
<path d="M8456 458 c-52 -74 41 -160 102 -95 46 48 17 117 -48 117 -29 0 -43
-6 -54 -22z"/>
<path d="M8936 458 c-23 -32 -20 -71 7 -96 30 -28 68 -28 95 1 46 48 17 117
-48 117 -29 0 -43 -6 -54 -22z"/>
<path d="M40 213 c-55 -70 42 -151 105 -88 28 27 31 45 14 78 -16 30 -28 37
-66 37 -23 0 -38 -8 -53 -27z"/>
<path d="M520 213 c-55 -70 42 -151 105 -88 28 27 31 45 14 78 -16 30 -28 37
-66 37 -23 0 -38 -8 -53 -27z"/>
<path d="M1007 222 c-39 -43 -7 -122 48 -122 33 0 75 42 75 75 0 56 -86 89
-123 47z"/>
<path d="M1487 222 c-23 -25 -21 -78 3 -102 27 -27 66 -25 95 5 30 29 32 68 5
95 -26 26 -81 26 -103 2z"/>
<path d="M1967 222 c-40 -44 -7 -122 51 -122 60 0 94 78 52 120 -26 26 -81 26
-103 2z"/>
<path d="M2447 222 c-40 -44 -7 -122 51 -122 59 0 92 67 56 118 -20 28 -83 31
-107 4z"/>
<path d="M2930 220 c-42 -42 -8 -120 53 -120 58 0 91 85 49 123 -25 23 -78 21
-102 -3z"/>
<path d="M3410 220 c-42 -42 -8 -120 53 -120 58 0 91 85 49 123 -25 23 -78 21
-102 -3z"/>
<path d="M3890 220 c-43 -43 -7 -120 56 -120 55 0 87 86 46 123 -25 23 -78 21
-102 -3z"/>
<path d="M4370 220 c-27 -27 -25 -66 5 -95 28 -29 64 -32 94 -7 28 22 31 75 6
102 -24 26 -79 26 -105 0z"/>
<path d="M4864 232 c-15 -10 -34 -47 -34 -67 0 -24 46 -65 73 -65 61 0 93 75
52 120 -18 20 -69 27 -91 12z"/>
<path d="M5331 214 c-27 -35 -26 -59 4 -89 63 -63 160 18 105 88 -29 37 -80
37 -109 1z"/>
<path d="M5811 214 c-12 -15 -21 -35 -21 -46 0 -27 45 -68 75 -68 30 0 75 41
75 68 0 11 -9 31 -21 46 -28 36 -80 36 -108 0z"/>
<path d="M6290 213 c-55 -70 42 -151 105 -88 28 27 31 45 14 78 -16 30 -28 37
-66 37 -23 0 -38 -8 -53 -27z"/>
<path d="M6775 220 c-41 -46 -7 -120 55 -120 33 0 70 40 70 76 0 57 -86 87
-125 44z"/>
<path d="M7257 222 c-38 -42 -7 -122 47 -122 63 0 99 77 56 120 -26 26 -81 26
-103 2z"/>
<path d="M7737 222 c-40 -44 -7 -122 51 -122 60 0 94 78 52 120 -26 26 -81 26
-103 2z"/>
<path d="M8217 222 c-24 -26 -21 -77 5 -102 65 -60 160 38 98 100 -26 26 -81
26 -103 2z"/>
<path d="M8696 218 c-52 -74 41 -160 102 -95 46 48 17 117 -48 117 -29 0 -43
-6 -54 -22z"/>
<path d="M9170 211 c-16 -31 -12 -66 10 -86 20 -18 20 -17 20 43 0 63 -11 78
-30 43z"/>
</g>
</svg>
